<?xml version="1.0" encoding="UTF-8"?>
<svg id="Layer_1" data-name="Layer 1" xmlns="http://www.w3.org/2000/svg" viewBox="0 0 1825.62 937">
  <defs>
    <style>
      .cls-1 {
        stroke: #f15a24;
      }

      .cls-1, .cls-2 {
        fill: #f15a24;
        stroke-miterlimit: 10;
      }

      .cls-2 {
        stroke: #f15a24;
      }
    </style>
  </defs>
  <polygon class="cls-2" points=".5 .5 7.12 936.5 583.12 936.5 565.12 873.5 97.12 612.5 97.12 135.5 304.12 279.5 529.12 .5 .5 .5"/>
  <polygon class="cls-2" points="1402.12 .5 1402.12 459.5 1411.12 765.5 1555.12 936.5 1717.12 936.5 1825.12 936.5 1825.12 576.5 1546.12 720.5 1546.12 621.5 1546.12 486.5 1546.12 432.5 1546.12 459.5 1825.12 522.5 1825.12 288.5 1546.12 324.5 1546.12 153.5 1546.12 90.5 1825.12 225.5 1825.12 .5 1402.12 .5"/>
  <path class="cls-1" d="M1375.12.5v423l-280.54-.65,383.82,513.65h-346.28l-117.69-515.9,45.69,515.9h-171L952.12.5M994.38,104.63l263.74,237.87,9-243"/>
  <path class="cls-2" d="M502.12,387.5l54,405-387-225L619.12.5h288l-72,936h-207l108-360M683.57,99.5l-117.71,192.74,187.85,132.96,47.57-325.7h-117.71Z"/>
</svg>