<?xml version="1.0" encoding="utf-8"?>
<!-- Generator: Adobe Adobe Illustrator 24.2.0, SVG Export Plug-In . SVG Version: 6.00 Build 0)  -->
<svg version="1.1" id="Layer_1" xmlns="http://www.w3.org/2000/svg" xmlns:xlink="http://www.w3.org/1999/xlink" x="0px" y="0px"
	 width="1920px" height="1080px" viewBox="0 0 1920 1080" style="enable-background:new 0 0 1920 1080;" xml:space="preserve">
<style type="text/css">
	.st0{fill:#F15A24;stroke:#F15A24;stroke-miterlimit:10;}
	.st1{fill:#D3D3D3;stroke:#D3D3D3;stroke-miterlimit:10;}
	.st2{fill:#F15A24;stroke:#D3D3D3;stroke-miterlimit:10;}
</style>
<polyline class="st0" points="765,648 657,1008 864,1008 936,72 648,72 198,639 585,864 531,459 "/>
<polygon class="st0" points="29.38,72 36,1008 612,1008 594,945 126,684 126,207 333,351 558,72 "/>
<polygon class="st0" points="1431,72 1431,531 1440,837 1584,1008 1746,1008 1854,1008 1854,648 1575,792 1575,693 1575,558 
	1575,504 1575,531 1854,594 1854,360 1575,396 1575,225 1575,162 1854,297 1854,72 "/>
<polyline class="st1" points="722.08,147.14 648.1,284.41 810,414 810,207 "/>
<polyline class="st2" points="981,72 918,1008 1089,1008 1043.31,492.1 1161,1008 1507.28,1008 1123.46,494.35 1404,495 1404,72 "/>
<polyline class="st1" points="1023.26,176.13 1287,414 1296,171 "/>
</svg>
