<?xml version="1.0" encoding="UTF-8"?>
<svg id="Layer_1" data-name="Layer 1" xmlns="http://www.w3.org/2000/svg" viewBox="0 0 1851.95 941.13">
  <defs>
    <style>
      .cls-1 {
        fill: #f15a24;
        stroke: #f15a24;
        stroke-miterlimit: 10;
      }
    </style>
  </defs>
  <path class="cls-1" d="M0,939.67h150.05c1.06.02,1.93-.84,1.93-1.9l.5-477.01c0-2.36,3.46-2.6,3.78-.26l66.57,476.23,463.84.95L207.92,390.84c-.65-.74-.62-1.85.05-2.56L574.68,1.36,226.11.5l-69.27,413.63L148.44.5H9.49l-3.78,434.16"/>
  <polygon class="cls-1" points="1142.13 .5 1092.12 .5 576.78 733.42 763.84 939.67 1094.06 496.19 1350.47 939.67 1503.44 .5 1279.89 .5 1245.44 506.71 1142.13 .5"/>
  <polyline class="cls-1" points="938.7 939.67 1350.47 939.67 1087.18 450.74"/>
  <path class="cls-1" d="M1757.31,938.47l-184.7-459.6,43.11,459.6h-208.73L1566.71.5h131.07l153.67,937.97M1624.05,102.13l-41.6,254.9,93.54,83.57-51.94-338.48Z"/>
  <path class="cls-1" d="M1016.87.5l-495.89,673.06-226.88-278.78L661.76.5h355.11ZM423.37,414.13l237.34-78.88,58.66-233.12-296,312Z"/>
</svg>