<?xml version="1.0" encoding="utf-8"?>
<!-- Generator: Adobe Adobe Illustrator 24.2.0, SVG Export Plug-In . SVG Version: 6.00 Build 0)  -->
<svg version="1.1" id="Layer_1" xmlns="http://www.w3.org/2000/svg" xmlns:xlink="http://www.w3.org/1999/xlink" x="0px" y="0px"
	 width="1920px" height="1080px" viewBox="0 0 1920 1080" style="enable-background:new 0 0 1920 1080;" xml:space="preserve">
<style type="text/css">
	.st0{fill:#F15A24;stroke:#F15A24;stroke-miterlimit:10;}
	.st1{fill:#D3D3D3;stroke:#000000;stroke-miterlimit:10;}
	.st2{fill:#D3D3D3;stroke:#D3D3D3;stroke-miterlimit:10;}
</style>
<path class="st0" d="M30.62,1013.74h150.05c1.06,0.02,1.93-0.84,1.93-1.9l0.5-477.01c0-2.36,3.46-2.6,3.78-0.26l66.57,476.23
	l463.84,0.95L238.54,464.91c-0.65-0.74-0.62-1.85,0.05-2.56L605.3,75.43l-348.57-0.86L187.46,488.2l-8.39-413.63H40.11l-3.78,434.16
	"/>
<polyline class="st0" points="1882.07,1012.55 1728.4,74.57 1597.33,74.57 1437.62,1012.55 1646.35,1012.55 1603.23,552.95 
	1787.93,1012.55 "/>
<polygon class="st0" points="692.38,74.57 324.72,468.86 551.6,747.64 1047.49,74.57 "/>
<polygon class="st0" points="1172.75,74.58 1122.74,74.58 607.4,807.5 794.46,1013.74 1124.68,570.27 1381.09,1013.74 
	1534.06,74.57 1310.52,74.58 1276.06,580.78 "/>
<polyline class="st0" points="969.32,1013.74 1381.09,1013.74 1117.8,524.82 "/>
<polygon class="st2" points="1654.68,176.2 1613.07,431.11 1706.61,514.68 "/>
<polygon class="st2" points="749.99,176.2 691.34,409.32 453.99,488.2 "/>
</svg>
