<?xml version="1.0" encoding="utf-8"?>
<!-- Generator: Adobe Adobe Illustrator 24.2.0, SVG Export Plug-In . SVG Version: 6.00 Build 0)  -->
<svg version="1.1" id="Layer_1" xmlns="http://www.w3.org/2000/svg" xmlns:xlink="http://www.w3.org/1999/xlink" x="0px" y="0px"
	 width="1920px" height="1080px" viewBox="0 0 1920 1080" style="enable-background:new 0 0 1920 1080;" xml:space="preserve">
<style type="text/css">
	.st0{fill:#FFFFFF;}
	.st1{fill:#4F6E46;}
</style>
<g>
	<g>
		<path class="st0" d="M1734.01,0C1796,0,1858,0,1919.99,0c0.01,359.98,0.01,719.95,0.01,1080c-639.87,0-1279.75,0-1920,0
			c0-133.63,0-267.33,0.35-401.51c3.34,3.3,6.11,7.29,9.38,10.8c4.94,5.3,11.27,4.57,17.2,2.45c4.69-1.68,6.43-5.93,6.31-10.89
			c-0.08-3.3-0.02-6.61-0.02-10.17c3.94-0.33,7.56-3.56,11.05,0.61c3.41,4.07,6.85,8.12,10.46,12c7.85,8.44,16.3,15.4,29.15,11.7
			c1.45-0.42,3.4,0.6,5.03,1.2c5.08,1.88,10.01,5.14,15.18,5.55c9.05,0.72,18.24-0.21,27.37-0.61c2.72-0.12,3.93,0.61,5.02,3.38
			c2.43,6.16,5.9,11.9,8.4,18.04c1.16,2.84,2.04,6.47,1.31,9.29c-3.36,13.01-7.46,25.81-10.98,38.78c-0.98,3.63-2.62,4.16-4.67,3.3
			c-1.04-6.28-2.01-11.93-2.88-17.6c-0.19-1.26-0.45-2.86,0.11-3.84c3.68-6.36,2.34-12.69-1.71-17.66c-3.8-4.66-9.73-3.75-15.2-1.97
			c-0.94,0.31-2.58-0.25-3.37-0.98c-3.91-3.56-7.65-7.31-11.76-11.28c0.65-1.15,1.75-3.1,2.93-5.19
			c-9.28-0.65-16.93,6.08-17.4,14.99c-0.11,2.16-0.1,4.33-0.03,6.5c0.14,4.09-1.98,5.11-5.36,3.7c-3.18-1.32-6.19-3.06-9.25-4.67
			c-5.71-3.01-9.59-2.48-12.64,3.16c-2.54,4.69-4.13,10.01-5.41,15.23c-2.15,8.77-1.61,18.59-9.3,25.12
			c-6.67,5.66-10.46,12.27-8.8,21.46c-1.43,0.09-2.41,0.28-3.35,0.18c-11.89-1.24-14.7,7.22-15.9,17.07
			c-0.49,4.04,2.26,6.51,6.38,5.64c-0.85,2.35-1.35,4.31-2.23,6.08c-2.1,4.21-1.11,7.01,3.34,8.61c1.36,0.49,2.79,0.75,3.84,1.02
			c-1.16,8.28-2.78,16.27-3.29,24.33c-0.66,10.4-1.7,21.04,4.77,30.48c0.54,0.79-0.22,2.69-0.71,3.94
			c-2.61,6.64-7.12,13.11-7.56,19.87c-0.54,8.18-4.48,14.28-7.57,21.07c-0.41,0.91-0.98,1.78-1.19,2.74
			c-2.95,13.03-0.56,19.77,13.2,17.96c7.27-0.95,14.48-3.33,21.37-5.99c6.62-2.55,11.67-1.19,12.36,5.61
			c0.97,9.66,6.69,14.98,14.83,17.76c9.44,3.22,19,0.3,19.73-11.67c0.22-3.65-0.16-7.36,0.36-10.95c0.46-3.16,1.36-6.42,2.84-9.22
			c2.6-4.92,5.8-9.52,8.73-14.26c1.12-1.8,2.2-3.63,2.95-4.87c4.96,0.51,9.52,1.98,13.58,1.11c4.02-0.87,7.52-4.1,12.12-6.81
			c0,4.1-0.13,7.87,0.03,11.63c0.19,4.47,0.22,9.01,1.08,13.37c1.22,6.23,5.48,9.82,11.6,9.01c4.22-0.56,8.18-3.05,12.33-4.7
			c1.96,5.84,4.41,11.8,13.5,11.46c3.72-0.14,6.63-0.48,8.19-3.61c2.34-4.68,4.67-9.53,5.89-14.57c1.65-6.85,2.19-13.97,3.35-20.96
			c0.19-1.11,1.16-2.09,1.77-3.13c0.78,0.51,2.05,0.87,2.26,1.55c2.16,7.11,7.02,9.57,14.23,9.87c5.62,0.24,10.31-2.35,10.39-8.05
			c0.06-4.08-0.81-8.18-1.43-12.25c-0.39-2.55-1.08-5.06-1.63-7.55c6.04-1.65,9.6-4.26,10.58-10.21
			c1.92-11.75,3.35-23.62,4.09-35.49c0.42-6.81-2.91-8.72-9.86-7.6c-2.38,0.39-4.79,1.03-5.98-2.48
			c-2.98-8.79-7.75-17.11-5.58-27.04c0.47-2.15-0.29-4.64-0.79-6.91c-2.84-12.89-12.9-22.35-26.96-17.22
			c-0.6,0.22-1.28,0.48-1.89,0.41c-8.34-0.89-16.68-1.84-25.28-2.8c0.62-2,1.3-4.35,2.07-6.66c1.84-5.57,3.47-6.05,7.69-1.92
			c3.57,3.49,7.85,3.33,12.08,2.54c4.11-0.78,5.69-3.97,5.38-6.89c4.57-2.05,8.48-3.8,13.15-5.9c5.02,4.22,11.82,4.22,18.96,2.04
			c2.61-0.8,5.31-1.72,7.98-1.76c6.96-0.11,10.01-3.46,9.45-10.55c-0.17-2.1-0.03-4.85,1.17-6.32c5.5-6.76,7.96-14.24,7.13-22.92
			c-0.16-1.66,0.62-3.42,1.04-5.45c6.98,2.27,12.26,2.77,18.36-2.85c7.32-6.74,8.51-8.02,4.76-17.2
			c-2.69-6.59-3.67-13.88-5.44-20.96c5.88-1.55,10.39-3.37,15.03-3.8c6.3-0.58,9.5-4.98,7.01-10.8c-0.63-1.48-1.3-3.11-1.3-4.67
			c0.01-10.27,0.1-20.55,0.39-30.82c0.08-2.88,0.93-5.74,1.42-8.61c4.56,6.3,7.66,12.45,11.23,18.32c3.54,5.84,8.8,9.36,15.83,7.57
			c4.08-1.03,7.81-3.46,11.41-5.13c2.39,6.46,4.7,13.4,7.5,20.12c6.21,14.9,24.73,17.21,34.53,4.51c1.28-1.66,3.29-2.73,4.73-4.29
			c2.09-2.26,4.93-4.43,5.72-7.15c1.56-5.35,2.27-11.01,2.69-16.6c0.43-5.67,0.1-11.39,0.1-15.79c6.39,0.13,11.7,0.07,16.98,0.44
			c1.96,0.14,3.93,1.15,5.74,2.07c4.36,2.24,8.41,5.95,12.98,6.71c7.65,1.28,15.6,0.78,23.42,0.89c0.81,0.01,1.82-0.72,2.4-1.39
			c1.81-2.12,3.39-4.43,5.17-6.57c3.94-4.73,6.86-9.8,6.96-16.24c0.04-2.23,1.38-4.41,1.6-6.66c0.28-2.76,0.66-5.77-0.15-8.31
			c-1.54-4.81-7.72-7.13-7.54-13.13c0.01-0.36-1.08-0.67-1.48-1.15c-2.45-2.99-5.15-5.84-7.21-9.09c-3.34-5.3-8.42-8.38-13.85-10.46
			c-4.01-1.54-8.67-1.42-13.04-1.98c-7.01-0.9-7.95-2.42-7.04-9.33c1.23-9.36,2.51-18.75,2.83-28.16c0.17-4.87,2.65-7.52,5.73-10.25
			c7.04-6.25,14.25-12.31,21.14-18.73c4.37-4.08,8.05-8.91,12.49-12.92c2.12-1.92,5.03-5.37,8.32-1.53
			c2.75,3.21,5.05,6.81,7.39,10.35c5.38,8.11,11.16,15.93,19.55,21.12c3,1.85,4.34,3.87,3.79,7.08c-0.76,4.47-2.3,8.86-2.58,13.34
			c-0.3,4.81-0.19,9.85,0.93,14.5c1.64,6.8,4.38,13.32,6.5,20.01c0.25,0.78-0.55,1.84-0.67,2.8c-0.77,5.83-2.31,11.71-1.98,17.48
			c0.32,5.47-0.2,12.4,7.36,14.45c2.2,0.6,4.62,0.38,7.28,0.57c0.39,3.1,0.72,6.34,1.24,9.55c0.55,3.34,0.93,6.78,2.02,9.96
			c2.28,6.63,7.34,9.26,15.63,7.28c4.92-1.17,6.04-5.85,5.87-9.57c3.62,0.38,7.28,0.96,10.96,1.11c7.6,0.32,10.98-4.99,7.96-12.01
			c-1.61-3.74-2.85-7.64-4.31-11.44c-0.35-0.91-0.78-1.84-1.4-2.57c-5.71-6.78-11.5-13.48-17.17-20.29
			c-0.66-0.79-0.7-2.08-1.03-3.14c3.46,2.48,5.81,5.53,8.72,7.92c6.47,5.32,12.94,10.62,22.34,9.73c8.6-0.82,13.15-7.33,9.68-15.15
			c-2.04-4.6-4.35-9.17-7.16-13.33c-4.52-6.69-9.4-13.15-14.43-19.48c-2.74-3.44-6.1-6.39-10.24-10.66c4.14-0.2,6.86-0.38,9.58-0.45
			c9.09-0.21,13.2-5.73,10.86-14.67c-3.48-13.33-11.12-24.36-19.31-35.27c12.21-32.18,14.05-65.96,3.39-81.73
			c33.15-30.4,70.17-56.32,99.84-90.99c2.94,5.77,0.95,9.92-0.81,14.25c-3.11,7.66-6.3,15.33-8.73,23.21
			c-2.88,9.33,0.55,15.12,9.16,17.55c0.26,5.25,0.04,10.46,0.94,15.47c0.64,3.55,3.2,6.88,7.47,6.09c4.3-0.79,6.98,0.86,9.73,3.71
			c2.41,2.51,4.25,5.54,9.17,4.7c3.06-0.53,7.33-0.42,9.51,4.67c3.91,9.09,16.55,11.35,23.1,4.46c1.18,1.34,2.36,2.61,3.47,3.95
			c2.97,3.59,6.96,5.28,10.97,3.03c6.26-3.51,12.11-7.77,17.87-12.07c0.96-0.72,1.24-3.57,0.64-4.91c-1.88-4.2-4.33-8.15-6.56-12.2
			c0,0-0.01-0.04,0.28,0.22c1.52,0.74,2.77,1.14,3.96,1.7c6.19,2.92,12.78,0.58,13.76-5.85c0.49-3.22-1.42-7.21-3.21-10.3
			c-5.12-8.85-10.73-17.42-16.84-27.21c2.63,0.49,4.32,0.29,5,1.02c3.6,3.91,7.53,3.88,12.58,3.05c8.52-1.41,10.94-5.14,6.69-12.71
			c-1.67-2.99-3.32-5.99-5.06-9.13c1.01-0.37,1.5-0.76,1.9-0.67c5.54,1.15,8.36-2.57,10.73-6.4c2.26-3.64,0.13-6.88-1.87-10.04
			c-0.71-1.12-1.26-2.94-0.85-4.06c1.7-4.6,3.62-9.14,5.8-13.53c2.14-4.3,1.12-7.89-3.44-9.43c-2.66-0.9-5.68-2.07-8.25-1.6
			c-12.33,2.26-21.42-2.8-29.01-11.82c-0.21-0.25-0.53-0.42-0.73-0.68c-2.54-3.21-5.06-6.43-8.18-10.41
			c15.96,0.27,16.48-7,11.94-17.08c-2.55-5.66-6.65-10.63-10.12-15.88c-2.11-3.19-4.33-6.32-6.81-9.93
			c7.45-0.34,13.93-0.29,20.31-1.07c3.3-0.4,6.56-2.01,9.58-3.58c2.12-1.1,3.69-3.23,5.71-4.6c7.07-4.76,14.22-9.38,20.24-13.33
			c8.04,13.42,16.5,25.72,23.05,38.97c6.68,13.5,14.58,26.02,25.32,38.43c-7.15,0-12.79-0.5-18.3,0.14
			c-5.98,0.69-12.88,1.11-15.6,7.71c-1.21,2.93-2.85,4.02-5.1,5.68c-3.37,2.49-8,4.76-7.33,10.29c0.53,4.39,4.02,6.98,10.36,8.14
			c2.19,0.4,4.33,1.06,6.8,1.68c-3.64,4.84-7.2,9.39-10.53,14.11c-0.85,1.2-1.04,2.9-1.41,4.4c-1.21,4.88,3.47,5.72,5.94,8.22
			c-1.25,3.41-3.93,7.07,0.65,9.84c2.29,1.39,4.8,2.66,7.38,3.26c2.81,0.66,5.82,0.49,9.25,0.71c-1.03,2.58-1.88,4.71-2.78,6.97
			c-2.19-1.15-3.87-2.25-5.7-2.96c-4.55-1.76-10.2,0.23-11.42,3.89c-1.23,3.67,2.75,11.73,6.22,12.58
			c13.42,3.31,16.01,6.77,16.17,20.74c0.02,2.27,1.23,4.52,1.9,6.84c2.91-1.15,4.8-1.73,6.53-2.63c1.9-1,3.65-2.29,5.46-3.46
			c5.89-3.79,9.81-2.87,13.77,2.88c4.29,6.23,5.43,13.42,6.63,20.59c1.33,7.93,2.4,15.98,9.48,21.22c1.13,0.84,3.19,0.54,4.83,0.56
			c3.06,0.04,6.26-0.62,9.09,0.17c0.94,0.26,0.61,4.17,1.38,6.21c0.59,1.55,1.74,3.2,3.12,4.08c5.09,3.25,10.74,5.73,15.47,9.41
			c4,3.11,12.89,4.77,17.56,2.72c5.04-2.21,5.97-6.51,7.02-11.72c1.69,0.69,3.05,1.31,4.45,1.79c1.62,0.56,3.26,1.19,4.94,1.43
			c2.2,0.31,4.45,0.15,6.67,0.37c4.43,0.43,8.14-2.32,7.44-6.59c-0.69-4.2-2.74-8.17-4.24-12.37c4.58,0,9.26,0.22,13.92-0.05
			c6.03-0.35,9.67-4.66,7.21-8.69c-1.18-1.94-4.09-2.93-6.35-4.11c-3.39-1.77-6.89-3.33-11.42-5.5c7.82-1.76,14.24-2.9,20.47-4.68
			c6.75-1.93,13.24-4.53,13.53-13.27c0.03-0.75,0.53-1.51,0.9-2.23c2.55-4.99,0.74-9.35-4.65-11.13c-6.37-2.1-12.82-3.98-19.11-6.29
			c-10.81-3.98-21.52-8.24-32.06-12.3c0.77-2.98,2.03-5.54,1.95-8.05c-0.13-3.87,2.08-4.12,4.73-3.94c2.26,0.15,4.48,0.95,6.74,1.03
			c4.28,0.14,9.3,1.35,12.69-0.42c4.58-2.39,7.91-7.17,12.51-11.64c5.42,0.74,8.04-1.62,11.04-11.65c2.74,0.89,5.46,1.79,8.21,2.65
			c8.37,2.62,15.16-3.7,23.15-4.16c6.29-0.36,4.94-6.66,4.98-11.57c6-0.58,9.28-4.35,9.64-9.86c0.19-2.91-2.12-5.9-2.49-8.96
			c-1.05-8.69-2.61-17.43,0.65-26.06c1.94-5.14,1.37-9.44-4.55-11.3c1.32-6.71,0.1-10.67-4.71-11.1
			c-5.31-0.47-11.45-1.83-15.78,3.48c-0.57,0.7-1.39,1.21-2.28,1.98c-1.54-10.64-3.43-12.85-10.25-12.46
			c1.64-12.39,3-13.97,9.63-11.17c0.72-0.39,1.45-0.77,2.17-1.17c6.1-3.37,6.36-7.35,0.73-11.29c-1.9-1.33-3.84-2.61-5.72-3.96
			c-2.92-2.09-2.75-4.3,0.43-5.93c5.11-2.62,10.13-5.43,15.37-7.74c3.73-1.64,4.84-5.3,3.39-7.54c-1.71-2.64-7.75-5.88-8.27-5.35
			c-3.48,3.61-5.08,0.01-7.48-0.97c-2.07-0.85-4.4-1.31-6.64-1.48c-3.24-0.24-6.5-0.06-10.34-0.06c0.63-1.59,1.14-2.58,1.41-3.62
			c1.05-4.07,3.26-8.36,2.66-12.2c-0.61-3.91-3.45-7.92-6.31-10.92c-4.74-4.96-16.14-1.98-19.26,4.56c-0.67,1.4-1.18,2.88-2.03,4.98
			c-1.96-1.86-4.41-3.09-4.77-4.77c-0.7-3.2-0.27-6.66-0.19-10.01c0.1-4.37-1.24-8.54-5.78-8.95c-3.8-0.35-8.19,0.8-11.6,2.63
			c-3.73,2-5.47,6.51-11.16,6.53c-5.12,0.02-6.9,5.95-3.28,9.73c2.99,3.12,6.76,5.48,10.73,8.59c0,0.01-0.11,1.17-0.46,2.25
			c-1.37,4.31-2.52,8.85-8.43,8.94c-1.13,0.02-2.5,0.01-3.34,0.61c-2.16,1.54-5.67,3.37-5.72,5.16c-0.07,2.44,2.57,4.96,4.12,7.58
			c-4.85,4.44-4.85,4.43-10.91,4.07c-0.47-0.03-1.01,0.07-1.44,0.28c-4,1.9-9.78,1.45-10.41,7.91c-0.05,0.48-1.37,0.81-2.06,1.26
			c-3.85,2.47-7.92,4.68-11.43,7.57c-1.45,1.19-2.92,4.63-2.24,5.67c1.4,2.17,4.04,4.36,6.5,4.84c3.81,0.75,7.9,0.01,11.87,0.06
			c2.72,0.03,5.44,0.34,8.62,0.55c-1.56,4.2-2.5,7.77,1.23,10.77c1.79,1.45,2.85,2.55,5.8,1.96c3.27-0.65,7.07,1.75,10.51,1.45
			c3.82-0.34,8.02-2.94,5.2,4.28c-0.19,0.48,0.63,1.4,1.04,2.07c1.99,3.21,8.57,5.53,12.8,4.04c4.88-1.72,8.62-1.05,11.22,3.95
			c-2.13,2.96-4.62,4.85-8.6,3.17c-8.93-3.77-13.92-2.16-18.59,5.92c-2.31,3.99-4.64,4.74-8.09,1.76c-3.69-3.19-6.84-7-10.26-10.5
			c-2.06-2.1-3.95-4.47-6.34-6.12c-8.18-5.67-15.94-12.18-26.55-13.22c-2.05-0.2-3.77-3.09-5.89-3.51
			c-6.97-1.39-14.1-1.99-21.07-3.38c-3.03-0.6-5.83-2.37-8.74-3.61c-3.86,0.07-6.8-1.35-7.26-5.66c-0.53-4.99-1.94-8.59-7.65-9.04
			c-0.74-0.06-1.37-1.41-2.42-2.57c7.37,0.61,14-5.49,14.03-12.38c0.07-15.16-0.03-30.33,0.06-45.49c0.01-1.83,0.72-3.66,1-4.95
			c4.58,1.69,8.15,3.02,10.34,3.83c0.9,2.75,1.1,4.63,2.05,5.99c1.75,2.5,10.39,4.52,13.2,3.63c2.98-0.95,6.04-1.63,8.49-2.27
			c0.21,3.63-0.28,6.54,0.68,8.87c1.05,2.56,10.01,4.36,12.62,2.8c2.55-1.52,4.7-3.69,7.16-5.37c1.56-1.06,3.34-2.37,5.09-2.49
			c5.98-0.42,7.53-1.82,7.25-7.82c-0.08-1.63-0.45-3.25-0.77-4.86c-1.02-5.24,1.22-10.12,5.87-12.69c3.56-1.97,4.02-6.95,0.88-9.81
			c-0.73-0.66-1.55-1.22-2.33-1.83c1.84-1.32,4.3-2.16,4.56-3.44c1.24-6.23,2.73-12.61,2.49-18.88c-0.2-5.31-9.23-10.32-14.91-9.79
			c-1.24,0.12-3-0.46-3.79-1.36c-4.48-5.1-14.45-5.13-19.11-0.08c-0.82,0.89-2.57,1.24-3.9,1.26c-6.64,0.12-12.93-4.12-19.92-1.34
			c-1.27,0.5-3.52-1.46-5.13-2.2c4.41-6.19,4.87-12.57,2.89-18.54c-2.14-6.47-8.52-6.92-14.87-7.06c0-9.56,0-18.92,0-28.27
			c-0.47-0.14-0.93-0.29-1.4-0.43c-4.27,9.48-8.53,18.96-12.85,28.54c-3.32-4.79-6.14-9.49-9.57-13.69
			c-6.03-7.38-9.64-17.15-19.73-20.6c-1.29-0.44-2.86-0.07-4.29-0.14c-2.43-0.12-4.86-0.3-7.28-0.45c0.29-2.24,0.16-4.65,0.98-6.68
			c0.77-1.93,2.69-3.37,3.8-5.21c1.94-3.23,3.65-6.59,5.46-9.9c6.03,0,12.06,0,18.66,0.32c3.43,3.02,6.34,5.66,9.11,8.45
			c3.3,3.32,7.36,1.44,11.07,2.04c8.99,1.46,15.93,7.35,23.97,12.27c-2.23,1.3-3.75,2.18-5.26,3.08c-5.72,3.4-6.95,9.21-3.29,14.4
			c4.15,5.89,10.55,6.71,16.84,7.79c7.26,1.24,14.53,2.39,22.17,3.64c-1.01,2.39-2.08,4.43-2.76,6.6c-2,6.29,1.19,10.68,7.82,11.09
			c6.59,0.41,13.18,1.24,19.77,1.25c3.86,0,8.54,0.5,9.23-5.76c0.28-2.55,2.4-4.9,4.25-8.44c6.28,13.1,17.09,13.02,27.61,12.02
			c8.27-0.78,12.46-7.06,14.51-15.92c3.1,1.94,5.85,3.26,8.11,5.17c2.48,2.1,4.1,5.42,6.8,7.01c5.28,3.11,11,5.12,17.28,2.07
			c5.22-2.54,10.54-4.76,11.33-11.62c0.09-0.81,1.17-1.5,1.2-1.53c-0.84-4.08-1.53-7.44-2.32-11.27c2.36,0,4.19-0.16,5.98,0.03
			c4.49,0.48,9.46,1.09,11.95-3.37c2.85-5.1-1.04-9.11-4.05-12.88c-1.45-1.82-3.1-3.47-4.67-5.19c-2.18-2.38-4.36-4.76-7.32-7.99
			c8.52-4.02,16.07-7.59,24.75-11.69c-2.74,23.98-5.32,46.56-7.94,69.53c-1.6,0.31-3.36,0.6-5.1,0.98
			c-3.52,0.77-7.07,1.47-10.53,2.44c-2.61,0.73-5.07,2-7.67,2.75c-11.39,3.28-23.16,5.7-29.73,17.41c-1.62,2.89-2.56,5.06-0.63,8.11
			c1.97,3.12,3.99,4.58,7.99,3.56c2.87-0.74,6.58-0.69,6.95,3.85c0.69,8.61,1.95,9.95,10.58,10.77c0.56,0.05,1.09,0.44,1.84,0.75
			c-0.89,1.51-1.6,2.72-2.16,3.68c3.84,5.11,7.38,10.08,14.8,8.47c0,2.52-0.26,4.39,0.05,6.15c1.19,6.86,2.52,13.81,12.8,12.88
			c2.73-0.25,5.54-0.45,8.24-0.11c5.64,0.72,11.28,2.26,17.1-2.02c-0.52-2.85-1.1-6.03-1.69-9.21c-0.98-5.32-2.16-10.62-2.81-15.99
			c-0.18-1.46,0.79-3.83,1.98-4.55c5.96-3.59,9.73-8.64,12.11-15.1c0.56-1.51,2.75-2.43,4.19-3.62c0.5,0.28,1,0.55,1.5,0.83
			c-3.89,6.31,0.39,8.51,5.23,10.58c-1.67,1.79-3.03,3.18-4.3,4.65c-3.92,4.51-3.16,7.59,2.72,9.28c5.08,1.46,11.05,2,15.03-1.21
			c5.26-4.25,9.74-2.71,14.68-0.82c1.25,0.48,2.39,1.54,3.28,2.59c2.55,2.98,3.77,8.32,9.92,4.3c0.11,1.56,0.14,2.38,0.24,3.19
			c1,8.23,2.19,8.25,10.7,9.41c11.88,1.63,13.8-5.19,15.93-13.23c0.36-1.35,0.67-2.93,1.55-3.9c3.99-4.41,4.79-10.27,1.43-15.29
			c-2.43-3.63-5.29-6.95-8.17-10.68c3.31-2.49,6.49-4.85,9.62-7.26c3.01-2.31,4.11-0.46,4.72,2.19c1.42,6.12,2.76,12.25,4.14,18.38
			c1.69,7.5,8.86,12.28,15.53,10.67c2.24,2.91,3.88,6.44,6.65,8.33c5.57,3.8,16.7,0.5,20.32-5.45c1.97-3.25,3.79-6.59,5.58-9.94
			c1.16-2.18,1.93-3.04,4.27-0.74c1.57,1.54,4.49,2.6,6.68,2.42c5.33-0.44,10.59-1.67,15.86-2.71c9.46-1.87,12.16-4.79,12.75-14.31
			c0.23-3.72,1.25-5.71,5.4-4.75c1.26,0.29,2.65,0.01,3.98-0.02c6.87-0.17,9.62-2.79,9.56-9.65c-0.03-2.92-0.25-6.05-1.32-8.71
			c-2.48-6.15-5.53-12.08-8.15-17.68c5.15-0.59,10.63-0.66,15.79-1.96c6.4-1.61,11.28-5.57,12.63-12.55c0.62-3.22,1-6.52,1.13-9.8
			c0.19-4.83,0.05-9.67,0.05-14.58c1.08,0,1.61-0.13,2.05,0.03c1.08,0.38,2.16,0.81,3.17,1.36c15.62,8.45,32.49,12.97,49.73,16.74
			c7.08,1.55,13.69,5.27,20.51,8c-0.04,0.54-0.08,1.08-0.12,1.63c-5.18,2.51-10.36,5.01-15.54,7.52c0.16,0.55,0.32,1.1,0.47,1.65
			c1.59,0.49,3.18,0.97,5.64,1.73c-2.68,4.06-5.24,7.64-7.46,11.42c-1,1.7-2.36,5-1.78,5.5c2.24,1.92,5.15,4.05,7.9,4.18
			c5.75,0.28,11.56-0.65,17.51-1.1c0,2.31,0,4.71,0,7.44c-2.71-0.34-5.1-0.87-7.51-0.89c-7.75-0.06-15.52,0.41-23.25,0.04
			c-7.5-0.36-13.07,1.9-17.05,8.54c-1.17,1.95-4.18,4.3-6.05,4.07c-7.84-0.96-14.34,2.11-20.85,5.5c-5.05,2.63-10.26,5.08-14.91,8.3
			c-3.8,2.63-3.46,5.21,0.53,7.39c3.02,1.64,6.38,2.65,9.07,3.73c-1.61,5.29-3.74,10.8-4.78,16.5c-0.35,1.93,1.61,5.79,3.27,6.3
			c4.74,1.45,9.85,1.77,14.84,2.27c5.07,0.52,10.18,0.84,15.27,1.04c4.36,0.17,8.76,0.35,13.1-0.01c4.69-0.38,9.23-1.5,12.83-5.01
			c1.8-1.76,3.69-4.12,5.88-4.59c2.56-0.55,5.5,0.68,8.64,1.19c-0.65,0.74-0.9,1.15-1.27,1.42c-6.73,4.93-13.56,9.73-20.13,14.86
			c-1.25,0.98-2.53,3.82-1.98,4.8c0.95,1.71,3.3,3.7,5.07,3.7c6.41,0,12.99-0.05,19.17-1.5c4.58-1.08,8.63-0.94,12.92,0.29
			c0.62,0.18,1.33,0.05,1.99,0.03c4.81-0.12,9.62-0.34,14.44-0.36c7.23-0.04,7.73,0.7,5.48,7.91c3.12,0.17,6.14,0.34,9.6,0.54
			c-2.05,3.82-0.35,4.87,2.65,6c8.74,3.29,17.63,4.43,26.93,3.82c3.96-0.26,8.31-1.42,11.38,3.34c1.06,1.64,4.6,2.02,7.09,2.33
			c3.05,0.38,6.18,0.09,10.07,0.09c-1.06,1.63-1.41,2.39-1.94,2.96c-4.19,4.49-8.4,8.97-12.65,13.4c-3.9,4.07-3.93,7.04,1.21,8.88
			c4.59,1.65,9.88,1.89,14.85,1.87c11.65-0.05,19.3-8.82,28.54-14.04c4.11-2.32,7.46-5.97,11.3-8.83c2.01-1.5,3.73-0.76,3.64,1.8
			c-0.14,4.24-0.93,8.47-0.97,12.71c-0.02,1.6,0.84,3.69,2.02,4.75c7.04,6.34,16.03,4.58,24.18,4.61
			c9.55,0.04,19.11-1.74,28.64-2.96c4.26-0.54,7.33-3.05,7.84-7.48c0.34-2.97-0.41-6.06-0.15-9.05c0.1-1.18,1.43-2.8,2.58-3.24
			c4.23-1.62,8.75-2.54,12.92-4.27c6.39-2.65,7.68-15.02,1.78-18.75c-5.05-3.18-10.73-5.35-16.12-8c-1.12-0.55-3.15-1.68-3.08-1.86
			c1.3-3.16-1.3-3.56-3.03-4.18c-3.18-1.13-6.52-1.83-9.73-2.89c-1.25-0.41-2.34-1.29-3.5-1.96c0.76-0.85,1.38-1.89,2.29-2.51
			c1.9-1.28,4.04-2.21,5.91-3.53c2.57-1.82,2.47-4.96-0.37-5.71c-3.74-0.99-7.69-1.39-11.57-1.58c-5.34-0.25-10.71-0.06-16-0.06
			c-0.56-2.81,3.75-6.19-0.74-8.11c-3.11-1.32-6.78-2.42-10.03-2.05c-5.72,0.65-4.39-2.37-3.97-6.27c6.88-0.44,13.6-0.55,20.23-1.43
			c3.53-0.47,6.88-2.26,10.31-3.46c-0.03-0.59-0.06-1.19-0.1-1.78c-13.97-4.73-30.17-2.36-43.44-12.63
			c8.61-0.44,16.28-1.4,23.9-1.08c9.25,0.38,18.45,1.91,27.69,2.77c3.31,0.31,6.91-0.62,9.93,0.38c3.35,1.11,6.19,3.77,9.26,5.76
			c-1.62,1.51-3.22,3.04-4.88,4.52c-0.86,0.77-1.83,1.41-2.7,2.16c-6.39,5.49-4.96,16.63,2.98,18.94c9.9,2.89,20.1,1.85,30.07-0.51
			c3.86-0.92,7.6-2.3,10.51-3.2c-0.92,6.68-1.92,12.57-2.38,18.49c-0.09,1.18,1.74,3.44,2.92,3.62c5.95,0.89,11.97,1.58,17.97,1.68
			c4.34,0.08,8.05-1.43,7.57-7.13c-0.09-1.11,0.9-2.32,0.91-2.34c8.99,0.66,17.4,1.42,25.81,1.86c8.34,0.43,13.18-6.78,9.45-14.35
			c-1.44-2.93-4.12-5.26-6.73-8.46c2.6,0,4.67,0.02,6.75,0c5.66-0.08,11.34,0.01,16.98-0.39c1.51-0.11,2.93-1.71,4.38-2.62
			c-1.23-1.46-2.23-3.23-3.72-4.32c-4.57-3.33-9.28-6.46-14.02-9.53c-4.15-2.69-1.91-6.14-0.57-8.75c0.85-1.65,3.84-3.28,5.72-3.13
			c9.06,0.74,18.07,2.09,27.25,3.24c-2.49,9.06-2.08,10.47,3.72,12.62c1.78,0.66,3.87,0.78,5.8,0.68
			c6.55-0.33,13.83,0.75,19.41-1.81c5.17-2.37,10.3-2.44,15.12-2.73c8.16-0.49,15.49-2.98,21.6-7.44
			c9.64-7.02,18.35-15.34,27.33-23.25c4.73-4.17,6.41-3.94,9.81,1.23c5.27,8.02,12.46,13.49,22.2,14.77
			c4.72,0.62,9.53,1.03,14.27,0.82c10.85-0.49,11.42-1.14,13.12-10.56c0.05-0.28,0.34-0.51-0.06,0.06
			c7.57-1.47,14.42-2.77,21.26-4.13c3.64-0.72,3.12-2.48,1.29-4.86c-3.82-4.98-9.33-6.56-15.02-7.93
			c-7.56-1.81-14.28-4.5-16.64-13.17c-1.22-4.48-4.9-7.19-9.41-7.74c-4.35-0.53-8.81-0.33-13.21-0.14
			c-3.76,0.17-7.53,0.61-11.24,1.25c-3.35,0.58-6.94,2.85-9.87,2.12c-4.52-1.13-8.65-0.38-12.34,1.13
			c-5.32,2.17-5.09,2.74-9.33-2.42c2.38-2.14,4.74-4.3,7.14-6.41c5.63-4.94,11.38-9.76,16.9-14.82c2.72-2.5,2.09-4.85-1.47-5.47
			c-3.88-0.68-7.86-0.9-11.81-1.1c-3.34-0.17-6.7-0.04-9.43-0.04c1.78-8.18,3.39-15.57,4.96-22.97
			C1734.58,0.91,1734.19,0.43,1734.01,0z M17.65,792.29c-3.03,1.51-6.06,3.01-9.1,4.52c5.3-0.32,11.84,2.25,14.14-5.56
			C21.11,791.56,19.75,791.83,17.65,792.29z"/>
		<path class="st1" d="M711.02,384.02c2.23,4.05,4.68,7.99,6.57,12.2c0.6,1.33,0.32,4.19-0.64,4.91
			c-5.76,4.3-11.62,8.56-17.87,12.07c-4.01,2.25-8,0.56-10.97-3.03c-1.11-1.34-2.29-2.61-3.47-3.95c-6.55,6.9-19.2,4.63-23.1-4.46
			c-2.18-5.08-6.45-5.19-9.51-4.67c-4.92,0.85-6.76-2.19-9.17-4.7c-2.74-2.86-5.43-4.51-9.73-3.71c-4.27,0.79-6.83-2.55-7.47-6.09
			c-0.9-5.01-0.68-10.23-0.94-15.47c-8.61-2.42-12.04-8.22-9.16-17.55c2.44-7.89,5.63-15.55,8.73-23.21
			c1.76-4.33,3.74-8.48,0.81-14.25c-29.67,34.66-66.7,60.59-99.84,90.99c10.67,15.77,8.82,49.55-3.39,81.73
			c8.19,10.9,15.83,21.94,19.31,35.27c2.33,8.94-1.77,14.45-10.86,14.67c-2.72,0.06-5.44,0.25-9.58,0.45
			c4.14,4.27,7.5,7.22,10.24,10.66c5.03,6.32,9.91,12.78,14.43,19.48c2.81,4.16,5.12,8.73,7.16,13.33
			c3.47,7.82-1.08,14.34-9.68,15.15c-9.4,0.89-15.87-4.41-22.34-9.73c-2.9-2.39-5.26-5.44-8.72-7.92c0.33,1.06,0.38,2.35,1.03,3.14
			c5.67,6.81,11.46,13.52,17.17,20.29c0.62,0.73,1.05,1.67,1.4,2.57c1.46,3.81,2.7,7.7,4.31,11.44c3.02,7.02-0.36,12.32-7.96,12.01
			c-3.68-0.15-7.33-0.73-10.96-1.11c0.17,3.72-0.94,8.4-5.87,9.57c-8.29,1.97-13.35-0.66-15.63-7.28c-1.09-3.18-1.48-6.61-2.02-9.96
			c-0.52-3.21-0.85-6.45-1.24-9.55c-2.65-0.18-5.07,0.03-7.28-0.57c-7.56-2.05-7.04-8.98-7.36-14.45
			c-0.33-5.77,1.21-11.65,1.98-17.48c0.13-0.96,0.92-2.02,0.67-2.8c-2.12-6.69-4.87-13.21-6.5-20.01c-1.12-4.65-1.23-9.69-0.93-14.5
			c0.28-4.48,1.82-8.87,2.58-13.34c0.54-3.2-0.8-5.22-3.79-7.08c-8.39-5.19-14.17-13.01-19.55-21.12
			c-2.34-3.53-4.64-7.14-7.39-10.35c-3.28-3.83-6.19-0.39-8.32,1.53c-4.43,4.01-8.11,8.84-12.49,12.92
			c-6.88,6.42-14.1,12.48-21.14,18.73c-3.08,2.73-5.56,5.38-5.73,10.25c-0.33,9.41-1.6,18.81-2.83,28.16
			c-0.91,6.91,0.02,8.43,7.04,9.33c4.37,0.56,9.03,0.44,13.04,1.98c5.43,2.08,10.51,5.16,13.85,10.46c2.05,3.25,4.75,6.1,7.21,9.09
			c0.39,0.48,1.49,0.79,1.48,1.15c-0.18,6,6,8.32,7.54,13.13c0.81,2.54,0.43,5.55,0.15,8.31c-0.23,2.25-1.57,4.44-1.6,6.66
			c-0.1,6.44-3.02,11.51-6.96,16.24c-1.78,2.14-3.36,4.45-5.17,6.57c-0.58,0.68-1.6,1.41-2.4,1.39c-7.83-0.11-15.78,0.39-23.42-0.89
			c-4.57-0.77-8.62-4.48-12.98-6.71c-1.8-0.93-3.78-1.93-5.74-2.07c-5.28-0.38-10.59-0.31-16.98-0.44c0,4.39,0.34,10.12-0.1,15.79
			c-0.42,5.58-1.13,11.25-2.69,16.6c-0.79,2.71-3.63,4.89-5.72,7.15c-1.44,1.56-3.45,2.63-4.73,4.29
			c-9.8,12.7-28.32,10.39-34.53-4.51c-2.8-6.72-5.11-13.66-7.5-20.12c-3.6,1.67-7.33,4.1-11.41,5.13
			c-7.03,1.78-12.29-1.73-15.83-7.57c-3.56-5.87-6.67-12.02-11.23-18.32c-0.49,2.87-1.34,5.73-1.42,8.61
			c-0.29,10.27-0.38,20.55-0.39,30.82c0,1.56,0.67,3.19,1.3,4.67c2.48,5.83-0.72,10.22-7.01,10.8c-4.64,0.43-9.15,2.25-15.03,3.8
			c1.77,7.08,2.75,14.37,5.44,20.96c3.75,9.18,2.56,10.46-4.76,17.2c-6.1,5.62-11.38,5.12-18.36,2.85
			c-0.41,2.04-1.19,3.79-1.04,5.45c0.82,8.68-1.64,16.16-7.13,22.92c-1.2,1.47-1.33,4.22-1.17,6.32c0.56,7.09-2.48,10.44-9.45,10.55
			c-2.67,0.04-5.38,0.96-7.98,1.76c-7.14,2.18-13.94,2.18-18.96-2.04c-4.67,2.09-8.58,3.85-13.15,5.9c0.31,2.93-1.27,6.12-5.38,6.89
			c-4.23,0.8-8.51,0.96-12.08-2.54c-4.22-4.13-5.85-3.65-7.69,1.92c-0.77,2.32-1.45,4.66-2.07,6.66c8.6,0.96,16.93,1.91,25.28,2.8
			c0.61,0.07,1.29-0.19,1.89-0.41c14.07-5.13,24.12,4.33,26.96,17.22c0.5,2.27,1.26,4.76,0.79,6.91c-2.17,9.93,2.6,18.25,5.58,27.04
			c1.19,3.51,3.61,2.87,5.98,2.48c6.96-1.13,10.29,0.78,9.86,7.6c-0.74,11.88-2.17,23.75-4.09,35.49
			c-0.97,5.95-4.53,8.56-10.58,10.21c0.55,2.49,1.24,5,1.63,7.55c0.62,4.07,1.48,8.17,1.43,12.25c-0.08,5.7-4.77,8.29-10.39,8.05
			c-7.21-0.3-12.06-2.76-14.23-9.87c-0.21-0.68-1.48-1.04-2.26-1.55c-0.61,1.04-1.58,2.02-1.77,3.13c-1.17,6.98-1.7,14.1-3.35,20.96
			c-1.22,5.05-3.55,9.89-5.89,14.57c-1.57,3.14-4.47,3.48-8.19,3.61c-9.08,0.34-11.53-5.62-13.5-11.46
			c-4.15,1.66-8.11,4.15-12.33,4.7c-6.12,0.81-10.38-2.79-11.6-9.01c-0.85-4.36-0.88-8.9-1.08-13.37
			c-0.16-3.76-0.03-7.53-0.03-11.63c-4.6,2.71-8.11,5.95-12.12,6.81c-4.06,0.88-8.63-0.6-13.58-1.11c-0.75,1.24-1.83,3.07-2.95,4.87
			c-2.94,4.74-6.13,9.34-8.73,14.26c-1.48,2.8-2.38,6.06-2.84,9.22c-0.52,3.59-0.14,7.3-0.36,10.95
			c-0.73,11.97-10.3,14.89-19.73,11.67c-8.15-2.78-13.86-8.1-14.83-17.76c-0.68-6.8-5.73-8.16-12.36-5.61
			c-6.89,2.65-14.1,5.03-21.37,5.99c-13.76,1.8-16.15-4.93-13.2-17.96c0.22-0.95,0.78-1.83,1.19-2.74
			c3.1-6.79,7.04-12.89,7.57-21.07c0.44-6.76,4.95-13.23,7.56-19.87c0.49-1.25,1.25-3.15,0.71-3.94
			c-6.47-9.43-5.43-20.07-4.77-30.48c0.51-8.06,2.13-16.05,3.29-24.33c-1.05-0.27-2.49-0.53-3.84-1.02c-4.45-1.6-5.44-4.4-3.34-8.61
			c0.88-1.77,1.38-3.73,2.23-6.08c-4.11,0.87-6.87-1.6-6.38-5.64c1.2-9.84,4.01-18.31,15.9-17.07c0.94,0.1,1.92-0.09,3.35-0.18
			c-1.66-9.19,2.13-15.8,8.8-21.46c7.7-6.53,7.15-16.35,9.3-25.12c1.28-5.22,2.88-10.54,5.41-15.23c3.05-5.64,6.94-6.17,12.64-3.16
			c3.06,1.61,6.07,3.35,9.25,4.67c3.38,1.41,5.5,0.39,5.36-3.7c-0.08-2.16-0.09-4.34,0.03-6.5c0.47-8.91,8.12-15.64,17.4-14.99
			c-1.18,2.09-2.28,4.04-2.93,5.19c4.11,3.98,7.84,7.73,11.76,11.28c0.8,0.73,2.43,1.28,3.37,0.98c5.47-1.78,11.4-2.68,15.2,1.97
			c4.05,4.97,5.39,11.3,1.71,17.66c-0.57,0.98-0.31,2.58-0.11,3.84c0.86,5.67,1.84,11.31,2.88,17.6c2.05,0.86,3.69,0.33,4.67-3.3
			c3.52-12.97,7.62-25.78,10.98-38.78c0.73-2.82-0.15-6.45-1.31-9.29c-2.5-6.14-5.97-11.88-8.4-18.04c-1.09-2.77-2.3-3.5-5.02-3.38
			c-9.13,0.4-18.32,1.33-27.37,0.61c-5.17-0.41-10.11-3.67-15.18-5.55c-1.63-0.6-3.59-1.62-5.03-1.2
			c-12.85,3.71-21.3-3.26-29.15-11.7c-3.61-3.88-7.06-7.93-10.46-12c-3.49-4.17-7.11-0.94-11.05-0.61c0,3.55-0.06,6.86,0.02,10.17
			c0.12,4.96-1.62,9.2-6.31,10.89c-5.93,2.12-12.26,2.85-17.2-2.45c-3.27-3.51-6.03-7.49-9.38-11.25C0,584.02,0,489.99,0.45,395.43
			c2.38-0.37,4.31-0.21,6.01-0.07c-0.48-7.65-1.07-14.86-1.34-22.09c-0.14-3.85,4.77-8.48,8.44-7.77c5.09,0.98,10.06,2.6,15.68,4.11
			c-0.33,0.74-0.01,0.21,0.15-0.36c0.93-3.36,1.99-6.7,2.71-10.11c1.6-7.58,6.44-10.66,14.17-9.98c4.16,0.36,8.43,1.5,11.87-4.1
			c4.66-7.59,15.76-5.84,19.6,1.82c1.75,3.48,4.57,6.42,7.43,10.33c10.22-13.55,19.81-26.83,39.33-17.26
			c2.07-6.51,4.7-12.07,5.48-17.87c1.16-8.56,5.3-15.29,10.5-21.66c4.97-6.09,8-12.97,9.05-20.74c2.09-15.47,4.05-30.95,6.34-46.39
			c1.38-9.31,2.63-18.62,7.34-27.18c6.23-11.35,8-24.08,10.51-36.63c1.57-7.85,4.86-15.4,7.73-22.94c1.52-4,4-7.62,5.72-11.55
			c3.64-8.32,6.43-17.09,10.78-25c3.11-5.65,8.34-10.09,12.39-15.26c10.57-13.51,25.18-21.78,40.29-28.23
			c11.27-4.81,19.44-11.01,23.8-22.31c0.47-1.22,1.48-2.24,2-3.45c1.41-3.3,2.68-6.66,4.5-11.21c-6.06,1.17-10.88,2.1-16.24,3.13
			c5.62,6.09,7.32,11.5,3.75,16.78c-2.46,3.63-7.17,5.73-10.88,8.51c-4.96-3.72-6.73,1-9.48,3.46c-1.75,1.57-4.12,4.17-5.73,3.85
			c-5.62-1.1-12.95,0.49-14.74-8.88c-4.51,6.5-10.3,6.69-15.81,5.98c-3.49-0.44-4.94,0.27-5.78,3.4c-0.43,1.6-1.15,3.13-1.81,4.65
			c-6.22,14.28-11.35,29.19-22.16,40.92c-5.05,5.48-7.15,11.16-5.76,18.78c0.86,4.73,0.15,10.08-1.19,14.77
			c-1.25,4.39-3.8,8.63-6.6,12.31c-2.91,3.83-7.62,3.1-11.55,1.84c-3.62-1.16-3.65-4.64-3.25-8.52c1.63,0.58,2.92,1.04,4.21,1.5
			c0.11-0.29,0.22-0.59,0.33-0.88c-2.48-0.67-4.97-1.34-7.9-2.13c-0.25,0.98-0.53,2.56-1.07,4.05c-0.57,1.59-1,3.52-2.15,4.56
			c-2.95,2.66-6.06,5.28-9.49,7.25c-5.45,3.12-10.22,8.25-17.64,6.66c-0.75-0.16-2.66,2.38-3.07,3.93c-0.76,2.85-0.13,6.19-1.28,8.8
			c-3.14,7.13-3.63,14.55-3.53,22.1c0.05,3.88,0.73,7.77-4.7,8.87c-3.41,0.69-6.64,2.66-10.04,2.93c-5.29,0.42-7.61-3.1-8.05-8.06
			c-0.08-0.88-0.39-1.74-0.66-2.89c-1.25,0.62-2.09,1.24-3.02,1.44c-1.21,0.25-2.49,0.17-3.73,0.23c0.23-1.3,0.21-2.72,0.76-3.87
			c0.93-1.94,2.22-3.72,3.44-5.69c-1.63-0.63-3.18-1.23-4.55-1.75c-1.57,4.23-3.05,8.21-4.5,12.12c-4.67,0.45-9.89,0.15-10.91-4.32
			c-1.61-7.11-6.63-15.01,1.46-21.77c2.26-1.89,4.06-4.33,6.1-6.56c-1.92-6.79-4.03-13.92-5.95-21.1
			c-1.55-5.78-4.05-7.37-10.73-6.13c-0.35,2.34-0.56,4.82-1.11,7.22c-2.66,11.65-6.73,15.77-16.03,13.36
			c-4.04-1.04-6,0.27-7.66,3.25c-2.6,4.66-7.05,5.06-11.29,4.17c-1.98-0.42-3.43-3.32-5.08-5.06c-0.86,0.07-2.97,0.75-3.37,0.19
			c-3.27-4.53-8.17-3.28-12.53-3.91C0,112.73,0,56.45,0,0c92.35,0,184.71,0,277.44,0.34c-1.95,2.17-4.28,4-6.72,5.91
			c-1.02,2.21-1.67,5.41-3.61,7.26c-1.65,1.57-4.79,1.58-7.27,2.27c0.19,0.64,0.39,1.29,0.58,1.93c8.71-2.39,17.41-4.78,24.75-6.79
			C283.91,6.59,282.96,3.3,282,0c46.35,0,92.71,0,139.58,0.45c-0.71,6.42-2.04,12.38-3.13,18.38c-1.45,7.94-2.82,15.91-4.01,23.89
			c-0.46,3.07-0.07,6.27-0.47,9.36c-0.6,4.64-2.43,8.38-8.06,8.18c-5.02-0.18-6.25,3.2-6.05,7.1c0.44,8.45,2.72,16.45,7.16,24.79
			c-0.2-4.31-0.59-7.62-0.45-10.9c0.25-5.75,4.22-9.54,9.29-8.98c3.68,0.4,7.32,1.11,10.86,1.67c0-5.12-0.14-10.08,0.05-15.03
			c0.13-3.26,4.59-6.58,7.58-5.61c3.92,1.27,9.06-0.75,11.71,4.27c0.17,0.33,2.07-0.53,3.02-0.28c4.28,1.13,9.75-1,12.54,4.31
			c1.11,2.11,1.45,4.88,3.04,6.4c2.45,2.35,5.67,3.88,8.82,5.93c2.97-7.14,9.53-5.37,15.03-4.87c4.58,0.42,5.65,5,6.29,8.97
			c-0.21,0.22-0.17,0.44-0.13,0.65c0.1-0.24,0.2-0.48,0.66-0.67c8.14-11.61,6.35-23.61,1.87-35.72c-5.93,0.13-11.21,1.3-16.8,2.84
			c-8.48,2.34-18.25,3.11-26.93-2.44c-3.04-1.95-7.09-3.23-10.68-3.22c-6.84,0.01-11.27-2.55-13.22-9.11
			c-0.45-1.53-0.88-3.35-1.96-4.36c-3.68-3.46-4.57-8.09-2.31-11.7c1.51-2.41,6.01-3.91,9.27-4.07c6.39-0.32,12.84,0.72,19.27,0.84
			c1.42,0.03,3.71-1.14,4.14-2.3c2.02-5.45,6.19-6.26,11.16-6.32C470.1,2.44,471.05,0.86,472,0c19.02,0,38.04,0,57.46,0.43
			c0.6,2.53,0.01,5.36,1.15,6.62c4.16,4.6,3.78,10.05,4.05,15.5c0.09,1.77,0.57,3.55,1.1,5.25c1.04,3.29,2.92,6.45,3.24,9.79
			c0.77,7.91,0.94,15.89,1.13,23.85c0.11,4.27,0.58,7.72,5.99,8.33c3.4,0.39,6.69,1.77,10.03,2.73c0.08,0.02,0.11,0.21,0.17,0.32
			c0.01-0.09,0.03-0.17,0.14-0.98c-1.59-0.55-3.27-1.25-5.03-1.7c-5.91-1.51-8.35-3.8-8.64-9.79c-0.13-2.72,1.71-5.48,2.02-8.29
			c1.09-9.8,1.91-19.63,2.83-29.45c8.12-0.79,16.8-4.61,23.97,3.81c-0.64-2.23-2.08-3.64-3.1-5.32C564.29,14.1,560.17,7.03,556,0
			c61.69,0,123.38,0,185.53,0c-1.34,3.31-3.05,6.67-4.99,9.9c-1.11,1.84-3.03,3.28-3.8,5.21c-0.81,2.03-0.69,4.44-0.98,6.68
			c2.43,0.15,4.85,0.33,7.28,0.45c1.43,0.07,3-0.3,4.29,0.14c10.08,3.45,13.7,13.23,19.73,20.6c3.43,4.2,6.25,8.89,9.57,13.69
			c4.31-9.59,8.58-19.06,12.85-28.54c0.47,0.14,0.93,0.29,1.4,0.43c0,9.36,0,18.71,0,28.27c6.34,0.14,12.72,0.58,14.87,7.06
			c1.98,5.98,1.52,12.35-2.89,18.54c1.61,0.74,3.86,2.71,5.13,2.2c6.99-2.78,13.28,1.46,19.92,1.34c1.33-0.02,3.09-0.38,3.9-1.26
			c4.65-5.06,14.63-5.02,19.11,0.08c0.79,0.9,2.56,1.47,3.79,1.36c5.68-0.53,14.71,4.48,14.91,9.79c0.23,6.27-1.25,12.65-2.49,18.88
			c-0.25,1.28-2.72,2.11-4.56,3.44c0.78,0.61,1.6,1.17,2.33,1.83c3.14,2.86,2.69,7.84-0.88,9.81c-4.65,2.57-6.89,7.45-5.87,12.69
			c0.31,1.61,0.69,3.23,0.77,4.86c0.29,6-1.27,7.41-7.25,7.82c-1.76,0.12-3.53,1.43-5.09,2.49c-2.47,1.68-4.61,3.85-7.16,5.37
			c-2.62,1.56-11.58-0.24-12.62-2.8c-0.95-2.33-0.47-5.25-0.68-8.87c-2.45,0.64-5.51,1.33-8.49,2.27
			c-2.81,0.89-11.45-1.13-13.2-3.63c-0.95-1.36-1.15-3.24-2.05-5.99c-2.19-0.81-5.77-2.14-10.34-3.83c-0.27,1.29-0.99,3.12-1,4.95
			c-0.09,15.16,0.01,30.33-0.06,45.49c-0.03,6.89-6.66,12.99-14.03,12.38c1.05,1.16,1.68,2.52,2.42,2.57
			c5.71,0.46,7.12,4.06,7.65,9.04c0.46,4.31,3.4,5.73,7.26,5.66c2.91,1.24,5.71,3,8.74,3.61c6.97,1.38,14.1,1.98,21.07,3.38
			c2.12,0.42,3.84,3.31,5.89,3.51c10.61,1.04,18.37,7.55,26.55,13.22c2.38,1.65,4.28,4.02,6.34,6.12c3.43,3.5,6.58,7.31,10.26,10.5
			c3.45,2.98,5.78,2.23,8.09-1.76c4.67-8.07,9.66-9.68,18.59-5.92c3.98,1.68,6.47-0.2,8.6-3.17c-2.6-5-6.34-5.67-11.22-3.95
			c-4.23,1.49-10.81-0.83-12.8-4.04c-0.42-0.67-1.23-1.59-1.04-2.07c2.81-7.22-1.38-4.62-5.2-4.28c-3.45,0.31-7.24-2.1-10.51-1.45
			c-2.95,0.59-4.01-0.52-5.8-1.96c-3.72-3-2.78-6.57-1.23-10.77c-3.18-0.21-5.9-0.52-8.62-0.55c-3.97-0.05-8.06,0.7-11.87-0.06
			c-2.46-0.49-5.1-2.67-6.5-4.84c-0.67-1.04,0.79-4.48,2.24-5.67c3.51-2.89,7.58-5.1,11.43-7.57c0.7-0.45,2.02-0.78,2.06-1.26
			c0.63-6.46,6.41-6,10.41-7.91c0.43-0.2,0.96-0.3,1.44-0.28c6.06,0.37,6.06,0.37,10.91-4.07c-1.55-2.61-4.19-5.13-4.12-7.58
			c0.05-1.8,3.56-3.62,5.72-5.16c0.84-0.6,2.21-0.59,3.34-0.61c5.91-0.09,7.06-4.63,8.43-8.94c0.34-1.08,0.46-2.24,0.46-2.25
			c-3.97-3.12-7.74-5.48-10.73-8.59c-3.62-3.78-1.84-9.71,3.28-9.73c5.69-0.02,7.43-4.53,11.16-6.53c3.41-1.83,7.8-2.98,11.6-2.63
			c4.54,0.41,5.88,4.58,5.78,8.95c-0.08,3.35-0.51,6.81,0.19,10.01c0.37,1.68,2.81,2.91,4.77,4.77c0.85-2.1,1.36-3.58,2.03-4.98
			c3.12-6.54,14.52-9.52,19.26-4.56c2.87,3.01,5.71,7.02,6.31,10.92c0.6,3.84-1.62,8.12-2.66,12.2c-0.27,1.05-0.78,2.03-1.41,3.62
			c3.84,0,7.1-0.18,10.34,0.06c2.25,0.17,4.57,0.63,6.64,1.48c2.39,0.98,4,4.58,7.48,0.97c0.52-0.54,6.55,2.7,8.27,5.35
			c1.45,2.24,0.35,5.9-3.39,7.54c-5.24,2.31-10.26,5.13-15.37,7.74c-3.18,1.63-3.34,3.83-0.43,5.93c1.88,1.35,3.82,2.63,5.72,3.96
			c5.63,3.94,5.37,7.92-0.73,11.29c-0.72,0.4-1.45,0.78-2.17,1.17c-6.63-2.8-7.99-1.23-9.63,11.17c6.83-0.39,8.71,1.82,10.25,12.46
			c0.9-0.77,1.71-1.28,2.28-1.98c4.32-5.31,10.47-3.94,15.78-3.48c4.82,0.43,6.04,4.39,4.71,11.1c5.93,1.86,6.5,6.17,4.55,11.3
			c-3.26,8.62-1.7,17.37-0.65,26.06c0.37,3.05,2.68,6.04,2.49,8.96c-0.36,5.51-3.64,9.28-9.64,9.86c-0.04,4.9,1.31,11.2-4.98,11.57
			c-7.99,0.46-14.77,6.78-23.15,4.16c-2.74-0.86-5.47-1.77-8.21-2.65c-3,10.03-5.62,12.39-11.04,11.65
			c-4.6,4.47-7.93,9.25-12.51,11.64c-3.39,1.77-8.4,0.56-12.69,0.42c-2.25-0.07-4.48-0.88-6.74-1.03c-2.65-0.18-4.86,0.07-4.73,3.94
			c0.08,2.51-1.18,5.06-1.95,8.05c10.54,4.06,21.25,8.31,32.06,12.3c6.29,2.32,12.74,4.2,19.11,6.29c5.4,1.78,7.2,6.14,4.65,11.13
			c-0.37,0.72-0.87,1.48-0.9,2.23c-0.29,8.74-6.78,11.34-13.53,13.27c-6.23,1.78-12.65,2.92-20.47,4.68
			c4.53,2.16,8.03,3.72,11.42,5.5c2.25,1.18,5.16,2.17,6.35,4.11c2.46,4.03-1.18,8.35-7.21,8.69c-4.66,0.27-9.34,0.05-13.92,0.05
			c1.5,4.19,3.55,8.17,4.24,12.37c0.7,4.26-3,7.02-7.44,6.59c-2.21-0.22-4.47-0.06-6.67-0.37c-1.68-0.23-3.32-0.87-4.94-1.43
			c-1.41-0.48-2.77-1.11-4.45-1.79c-1.05,5.21-1.98,9.52-7.02,11.72c-4.67,2.05-13.56,0.39-17.56-2.72
			c-4.73-3.68-10.38-6.16-15.47-9.41c-1.37-0.88-2.53-2.53-3.12-4.08c-0.78-2.04-0.45-5.95-1.38-6.21
			c-2.82-0.79-6.03-0.13-9.09-0.17c-1.63-0.02-3.7,0.28-4.83-0.56c-7.08-5.24-8.14-13.29-9.48-21.22
			c-1.2-7.17-2.34-14.36-6.63-20.59c-3.96-5.75-7.87-6.67-13.77-2.88c-1.81,1.17-3.56,2.46-5.46,3.46c-1.72,0.9-3.62,1.48-6.53,2.63
			c-0.68-2.32-1.88-4.57-1.9-6.84c-0.15-13.97-2.75-17.43-16.17-20.74c-3.47-0.85-7.45-8.91-6.22-12.58
			c1.23-3.65,6.87-5.65,11.42-3.89c1.83,0.71,3.51,1.81,5.7,2.96c0.9-2.26,1.75-4.38,2.78-6.97c-3.43-0.22-6.44-0.05-9.25-0.71
			c-2.58-0.6-5.09-1.88-7.38-3.26c-4.58-2.77-1.9-6.43-0.65-9.84c-2.47-2.5-7.15-3.34-5.94-8.22c0.37-1.5,0.56-3.2,1.41-4.4
			c3.33-4.72,6.89-9.27,10.53-14.11c-2.47-0.62-4.61-1.28-6.8-1.68c-6.34-1.17-9.83-3.75-10.36-8.14
			c-0.67-5.53,3.96-7.79,7.33-10.29c2.25-1.66,3.89-2.74,5.1-5.68c2.71-6.6,9.62-7.02,15.6-7.71c5.51-0.63,11.16-0.14,18.3-0.14
			c-10.75-12.41-18.64-24.93-25.32-38.43c-6.55-13.24-15.01-25.55-23.05-38.97c-6.02,3.95-13.17,8.57-20.24,13.33
			c-2.02,1.36-3.58,3.49-5.71,4.6c-3.02,1.57-6.28,3.17-9.58,3.58c-6.38,0.78-12.85,0.73-20.31,1.07c2.49,3.62,4.71,6.74,6.81,9.93
			c3.46,5.24,7.57,10.21,10.12,15.88c4.53,10.08,4.01,17.36-11.94,17.08c3.12,3.98,5.65,7.2,8.18,10.41
			c0.2,0.26,0.52,0.43,0.73,0.68c7.6,9.02,16.68,14.08,29.01,11.82c2.58-0.47,5.6,0.7,8.25,1.6c4.56,1.54,5.58,5.13,3.44,9.43
			c-2.18,4.39-4.1,8.93-5.8,13.53c-0.41,1.12,0.14,2.94,0.85,4.06c2,3.16,4.13,6.4,1.87,10.04c-2.37,3.82-5.19,7.54-10.73,6.4
			c-0.4-0.08-0.89,0.3-1.9,0.67c1.74,3.14,3.39,6.14,5.06,9.13c4.24,7.58,1.83,11.31-6.69,12.71c-5.05,0.83-8.98,0.86-12.58-3.05
			c-0.68-0.73-2.37-0.53-5-1.02c6.11,9.79,11.72,18.36,16.84,27.21c1.79,3.09,3.7,7.08,3.21,10.3c-0.98,6.44-7.56,8.77-13.76,5.85
			c-1.18-0.56-2.44-0.97-4.01-1.65c-0.35-0.2-0.33-0.44-0.33-0.44L711.02,384.02z M251.17,86.09c-7.36,3.03-14.07,6.62-19.27,13.22
			c-6.13,7.79-13.64,14.41-17.57,23.92c-3.04,7.36-6.92,14.37-10.48,21.51c-0.95,1.9-2.1,3.71-3.16,5.56
			c0.39,0.36,0.77,0.72,1.16,1.08c5.17-3.66,10.76-6.87,15.44-11.09c10.88-9.78,20.28-20.99,27.14-33.93
			c3.39-6.39,4.97-13.74,7.68-20.38c0.07-0.12,0.14-0.24,0.22-0.35C252.17,85.7,252.02,85.76,251.17,86.09z M550.66,355.82
			c4.57-3.21,9.54-6,13.64-9.74c7.6-6.91,14.75-14.32,21.98-21.62c13.61-13.76,29.49-25.31,40.19-41.92
			c3.07-4.77,3.55-11.34,0.04-16.89c-4.56,3.53-9.46,6.72-13.62,10.67c-10.35,9.81-23.68,10.04-31.97,4.64
			c-4.42-2.88-5.72-6.85-5.79-11.89c-0.06-4.56,2.9-6.31,6.19-7.38c6.76-2.21,13.71-3.81,20.53-5.85c1.95-0.58,4.34-1.36,5.42-2.86
			c2.76-3.83,4.58-8.34,7.42-12.11c1.63-2.17,4.34-4.37,6.87-4.8c2.83-0.48,5.99,1.04,9.31,1.75c0-1.9,0-3.26,0-4.57
			c-9.83-1.31-19.55-1.12-28.13-6.67c-9.05-5.85-9.97-15.47-1.87-22.65c4.95-4.39,9.72-9,14.35-13.72c1.16-1.19,1.46-3.23,2.16-4.88
			c-0.37-0.46-0.74-0.93-1.11-1.39c-4.24,0.98-8.88,1.19-12.64,3.12c-6.15,3.16-11.55,7.76-17.63,11.09
			c-2.54,1.39-6.01,1.1-9.89,1.7c1.92,3.4,3.59,6.19,5.1,9.06c3.47,6.6,7.2,13.1,10.17,19.93c2.03,4.64-0.03,9.88-4.13,10.82
			c-4.98,1.15-10.44,3.1-15.12-0.96c-2.95-2.56-5.65-5.44-8.31-8.31c-2.94-3.17-5.7-6.5-9.4-10.74c-1.34,7.39-2.45,13.1-3.4,18.83
			c-1.53,9.21-12.63,14.62-19.81,8.82c-3.24-2.62-4.73-7.74-6.29-11.99c-1.66-4.52-2.47-9.35-3.75-14.42
			c-5.88,6.64-12.63,6.33-20.06,4.54c-0.29,0.88-0.79,1.91-0.98,3c-1.7,9.66-3.36,19.33-4.98,29.01c-0.66,3.9-2.18,7.96-1.6,11.69
			c1.5,9.66,3.85,19.19,6.13,28.71c0.42,1.74,2.1,3.18,2.78,4.16c4.56-3.22,7.98-7.1,12.1-8.09c3.41-0.81,5.54-2.11,7.59-4.48
			c5.29-6.12,18.93-6.78,23.11,1.57c1.31,2.62,2.34,5.59,2.61,8.48c0.59,6.28,0.41,12.63,0.91,18.92
			c0.64,8.11-3.39,16.99,3.74,24.11c0.31,0.31,0.22,0.97,0.43,1.42c2.24,4.8-1.85,8.08-3.56,12.42c-7.22,3.72-14.88,4.87-23.38,3.28
			c1.06,4.69,1.94,8.62,2.85,12.64c6.11-4.29,11.69-8.1,17.13-12.09C547.5,359.05,548.64,357.37,550.66,355.82z M455.82,175.73
			c-0.92-1-2.69-2.08-2.6-2.97c0.37-3.55,1.32-7.03,2.11-10.8c-2.33-0.89-5.55-1.79-8.46-3.3c-3.77-1.95-8-3.78-6.9-9.53
			c0.18-0.93-0.88-2.76-1.77-3.1c-3.33-1.26-6.95-3.18-10.25-2.84c-9.54,0.99-17.46-1.88-24.07-8.38c-1.91-1.88-4.01-5.13-3.68-7.41
			c0.76-5.27,0.36-9.19-4.91-11.72c-0.96-0.46-1.44-2.2-1.86-3.44c-4.47-13.21-8.89-26.44-13.33-39.66
			c-0.48-1.41-1.03-2.8-1.71-4.64c-5.13,6.53-11.24,7.34-17.48,3.04c-1.08-0.74-2.12-1.71-3.33-2.06
			c-6.16-1.75-12.38-3.32-18.87-5.03c-1.44,4.58-3.21,9.22-4.35,14.01c-6.52,27.37-17.02,53.44-26.09,79.97
			c-2.1,6.14-4.35,12.26-5.95,18.54c-2.5,9.76-1.73,19.08,4.96,27.35c1.86,2.29,2.92,5.21,4.51,7.74
			c5.09,8.1,10.16,16.2,15.47,24.16c1.19,1.79,3.28,2.99,4.96,4.46c0.41-0.17,0.83-0.34,1.24-0.5c-0.28-5.21-0.64-10.42-0.81-15.63
			c-0.27-8.25-0.45-16.51-0.55-24.77c-0.01-0.87,0.55-1.89,1.14-2.6c2.69-3.23,5.53-6.33,8.22-9.56c3.27-3.94,6.04-8.38,9.72-11.88
			c5.91-5.62,12.34-10.71,18.69-15.85c1.34-1.08,3.24-1.72,4.97-2.01c10.34-1.73,26.33,4.19,28.75,16.34
			c4.78,0.89,9.41,1.4,13.83,2.66c4.14,1.18,8.81,2.52,7.15,7.81c2.52,0.88,4.58,1.6,6.95,2.42c10.82-1.59,22.2-3.26,33.99-4.99
			c-0.43-2.4-0.71-3.91-0.86-4.75C461.46,176.56,458.98,176.39,455.82,175.73z M225.9,284.37c2.19-2.29,4.38-4.59,7.29-7.64
			c-8.68-1.87-8.03-7.44-7.31-13.32c0.93-7.59,1.46-15.23,2.13-22.86c0.04-0.41-0.28-0.85-0.42-1.24c-1.29,0.17-2.44,0.33-3.5,0.47
			c2.33-3.11,4.43-6.07,6.71-8.88c0.68-0.84,1.78-1.42,2.8-1.9c7.43-3.54,15.38-1.66,22.11,5.31c0.5-1.33,1.03-2.53,1.4-3.78
			c3.37-11.32,6.79-22.63,10.02-33.99c1.31-4.59,3.26-9.36,3.02-13.94c-0.37-6.92,4.51-11.07,12.08-7.88
			c0.93-3.37,2.07-6.62,2.62-9.96c0.18-1.09-0.96-3.2-1.88-3.45c-1.12-0.31-3.7,0.69-3.82,1.42c-1.13,6.95-6.53,7.55-11.82,8.64
			c-1.83,0.38-4.21,1.06-5.11,2.42c-2.46,3.71-4.21,7.88-6.35,11.81c-2.21,4.06-4.35,8.19-6.97,11.98
			c-0.75,1.09-3.03,1.22-4.65,1.57c-1.19,0.26-2.51-0.03-3.68,0.28c-4.35,1.16-8.46-1.53-8.36-6.02c0.07-2.9,0.62-5.94,1.67-8.63
			c2.16-5.49,4.8-10.79,7.49-16.72c-8.45-0.73-16.89,1.52-24.93-7.18c-2.76,3.85-5.15,7.24-7.61,10.58
			c-7.79,10.58-18.72,19.04-21.7,32.85c-0.84,3.88-2.34,7.62-3.63,11.4c-2.52,7.4-5.59,14.65-7.57,22.19
			c-3.07,11.7-4.74,23.79-8.22,35.35c-7.17,23.85-14.99,47.51-22.88,71.14c-1.62,4.86,0,7.72,3.84,11.13
			c0.15-1.23,0.33-1.81,0.27-2.37c-0.26-2.63-0.5-5.27-0.9-7.88c-1.1-7.3,4.13-12.21,11.29-10.43c4.69,1.16,9.33,2.51,14.55,3.93
			c0.51-0.93,1.33-2.52,2.25-4.05c2.24-3.69,4.28-7.54,6.92-10.91c1.06-1.35,3.5-1.61,5.03-2.25c0.96-2.89,1.36-6.75,3.33-9.46
			c3.64-5,9.21-6.66,15.13-4.64c3.42,1.17,4.65-0.12,6.23-2.73C216.86,298.05,221.23,291.54,225.9,284.37z M277.26,419.43
			c-0.24,1.81-0.38,3.65-0.75,5.44c-1.3,6.22-1.16,13.09-7.95,16.85c-0.69,0.38-0.94,3.19-0.29,4.04c2.44,3.25,4.82,7.75,8.18,8.85
			c5.23,1.72,8.28,5.13,11.59,8.79c2.23,2.46,4.43,5.04,7.03,7.05c9.08,7,14.11,16.12,15.42,27.46c0.57,4.89,4.21,7.99,8.27,7.49
			c1.91-0.23,3.82-0.48,5.86-0.74c0-6.44-0.16-12.91,0.05-19.36c0.18-5.54,4.1-7.77,9.61-7.58c5.51,0.19,9.81,1.52,12.92,7.01
			c1.86-10.74,10.98-14.28,17.67-20.18c4.91-4.33,10.63-3.59,15.72-2.49c8.99,1.93,13.72,8.74,15.02,17.65
			c0.85,5.8,1.08,11.69,1.69,18.79c5.25-4.59,9.5-8.3,12.67-11.07c-3-4.57-6.36-7.76-7.35-11.57c-2.2-8.46-3.7-17.19-4.57-25.9
			c-0.73-7.36-0.15-14.85-0.15-22.85c-2.19,0.46-3.11,0.69-4.04,0.84c-14.13,2.27-19.82-1.85-24.07-10.02
			c-2.38-4.57-4.97-5.66-9.39-4.47c-1.6,0.43-3.22,1.22-4.81,1.17c-4.52-0.13-9.43,0.41-13.47-1.15
			c-9.47-3.66-9.93-13.89-7.24-22.38c2.1-6.61,0.39-11.33-1.78-17.21c-3.83,3.65-6.78,8.22-10.92,9.92
			c-4.41,1.81-9.93,0.91-15.32,1.21c-0.19,1.33-0.29,2.82-0.63,4.24c-2.07,8.56-6.09,17.85-17.18,17.13
			c-1.09-0.07-2.68,0.14-3.26,0.85C282.82,410.93,280.11,414.8,277.26,419.43z M136.52,559.71c3.32,1.85,6.74,3.54,9.94,5.57
			c4.47,2.85,8.46,6.82,13.28,8.67c3.23,1.24,7.05,0.59,8.86,4.6c0.16,0.35,1.54,0.31,2.32,0.2c7.13-1.01,14.2-1.89,17.94,6.07
			c3.99-4.54,7.78-8.85,11.44-13.01c-5.84,0.37-12.06,1.39-18.18,1c-10.99-0.71-20.8-4.37-26.71-14.65
			c-4.56-7.94-2.79-18.72,4.72-22.92c7.61-4.26,15.95-7.19,23.95-10.76c2.6-1.16,5.1-2.53,7.65-3.8c-14.54-4.4-14.18-10.4-11.4-18.5
			c-2.72,0-5.29-0.15-7.85,0.03c-5.17,0.37-8.86-3.35-8.08-8.47c0.29-1.89,0.84-3.74,1.33-5.83c-8.59,1.67-12.25-3.58-14.83-9.86
			c-2.38-0.12-5.65,0.57-6.36-0.47c-4.18-6.12-10.54-6.74-16.87-8.63c-6.24-1.86-8.91-2.25-13.25,2.94
			c5.53,3.83,11.18,7.51,16.57,11.53c4.69,3.5,4.57,9.94-0.15,13.01c-1.48,0.97-3.47,1.15-5.63,1.82
			c5.23,6.05,8.78,12.39,6.07,20.25c-2.63,7.63-9.11,11.32-16.54,14.1c1.82,2.44,3.31,4.2,4.55,6.13c2.16,3.35-0.12,9.94-4.03,10.39
			c-3.89,0.45-7.97-0.09-11.88-0.71c-3.32-0.53-6.52-1.8-9.78-2.75c-0.25,0.69-0.51,1.38-0.76,2.08c4.55,1.99,8.93,4.66,13.68,5.84
			C116.17,555.96,126.01,557.53,136.52,559.71z M628.42,89c1.99,9.05,3.98,18.09,6.19,28.09c3.22-2.24,5.93-4.02,8.52-5.96
			c7.77-5.78,15.5-5.63,23.32,0.14c1.2,0.88,4.14,1.15,5.04,0.33c2.16-1.96,4.66-4.56,5.07-7.21c0.81-5.29,2.97-8.62,6.35-9.24
			c3.41-5.18,5.97-9.06,7.73-11.72c-2.44-2.61-6.16-4.78-6.41-7.29c-0.39-3.95-0.83-7.73-1.89-11.61
			c-1.21-4.42,1.23-7.83,4.53-10.87c4.67-4.3,10.09-8.36,9.26-15.01c-2.97-2.35-7.2-4.08-7.37-6.15c-0.43-5.22-4.82-6.99-7.68-11.52
			c-2.73,2.31-5.75,4.69-6.84,7.76c-2.78,7.86-7.8,13.87-14.45,18.24c-10.08,6.62-20.6,12.58-31.03,18.64
			c-2.52,1.46-4.35,2.71-3.58,6.09C626.41,77.15,627.32,82.66,628.42,89z M364.85,260c2.87,0.76,5.74,1.53,9.02,2.4
			c0.54-1.83,1.13-3.52,1.55-5.26c1.06-4.36,4.47-5.45,8.23-5.78c1.7-0.15,3.52,0.23,5.17,0.72c1.91,0.57,4.35,1.06,5.41,2.45
			c1.6,2.12,2.19,4.99,3.33,7.84c0.47-0.04,1.3,0,2.07-0.21c4-1.11,8.02-2.19,11.98-3.46c7.98-2.55,10.25-5.63,10.22-14.18
			c-0.01-2.83,0.8-4.51,3.57-5.76c3.38-1.52,7.07-3.2,9.51-5.84c9.67-10.46,18.91-21.31,28.26-32.06c0.52-0.6,0.61-1.57,1.11-2.95
			c-14.07,2.14-27.47,4.18-42.6,6.49c-1.85,6.05-3.91,13.83-6.72,21.33c-0.75,2.01-3.66,3.4-5.83,4.62
			c-1.31,0.73-3.33,0.19-4.65,0.91c-5.28,2.9-8.1,2.44-13.06-0.86c-2.41-1.61-6.66-3.19-8.67-2.12
			c-4.98,2.64-10.79,5.94-13.22,10.58c-3.29,6.27-6.23,12.15-13.8,16.08C359.12,256.88,361.61,258.32,364.85,260z M281.48,72.87
			c-0.86,0.77-2.11,1.38-2.52,2.34c-5.16,11.96-10.2,23.97-14.82,34.91c3.84,4.12,7.04,7.41,10.07,10.85
			c2.27,2.58,4.19,4.59,7.73,1.37c1.28-1.17,4.21-1.61,5.92-1.03c3.8,1.29,7.3,3.44,11.65,5.6c7.26-24.28,14.54-48.66,21.98-73.58
			C307.85,59.95,294.97,66.2,281.48,72.87z M843.03,265.18c1.18-0.33,2.37-0.67,3.76-1.06c-10.05-12.54-12.2-15.06-20.31-18.31
			c-8.23-3.3-16.85-5.63-25.3-8.38c4.89,5.81,5.92,8.49,0.71,12.17c4,5.29,8.16,10.47,11.95,15.89c2.94,4.2,5.28,8.82,8.15,13.08
			c2.66,3.94,5.95,3.69,8.02-0.45c1.4-2.82,2.44-5.82,3.92-8.59C835.66,266.31,838.03,263.91,843.03,265.18z M256.54,483.03
			c1.41-3.46-0.54-3.06-2.73-2.37c-4.88,1.54-7.78-0.94-9.83-4.93c-1.21-2.36-2.12-4.88-3.3-7.26c-1.3-2.62-2.76-5.16-4.78-8.91
			c-3.95,19.9-2.56,37.66,5.88,54.05c2.77,3.77,5.55,7.54,8.8,11.96c-0.3-3-0.68-5.41-0.75-7.82c-0.29-9.98-0.74-19.96-0.6-29.94
			C249.28,484.17,251.98,482.18,256.54,483.03z M589.49,96.97c4.82-5.73,9.37-11.57,7.75-19.32c-6.93,0.41-13.55,1.36-20.1,1.03
			c-6.36-0.32-12.65-1.95-19.83-3.15c3.19,4.4,6.31,8.38,9.05,12.61c1.4,2.15,3.18,4.84,2.95,7.11c-0.6,5.98,3.99,8.55,6.49,13.25
			C580.61,104.48,584.79,100.98,589.49,96.97z M512.68,388.66c2.39-1.98,4.78-3.96,7.17-5.93c-5.66,0.98-9.43-1.01-11.73-5.97
			c-2.8-6.04-5.72-12.02-8.37-18.13c-1.35-3.12-2.83-5-6.69-3.87c-5.93,1.75-7.82,3.56-7.24,8.12c0.84,6.6,1.7,13.19,2.81,19.75
			c0.24,1.4,1.44,3.6,2.43,3.74c4.85,0.69,5.61,3.89,5.85,7.85c0.07,1.13,0.92,2.22,1.41,3.33c1.04-0.68,2.52-1.11,3.05-2.07
			C503.72,391.19,507.56,389.66,512.68,388.66z M880.3,335.98c1.03-1.49,2.3-2.88,3-4.52c0.49-1.14,0.76-3.11,0.12-3.87
			c-2.13-2.52-1.1-4.33,0.28-6.68c0.89-1.51,1.08-3.72,0.86-5.53c-0.34-2.78-2.34-3.42-5.11-3.33c-3.87,0.14-7.04-1.36-8.67-5.33
			c-1.28-3.11-2.92-6.06-4.08-8.43c-2.84,4.1-5.18,7.47-6.72,9.69c2.71,1.35,7.48,2.14,8.61,4.6c2.47,5.37-1.87,8.22-6.86,9.71
			c6.36,5.23,4.3,8.67-8.82,13.9c9.44,1.65,17.67,3.09,26,4.54C879.34,339.2,879.68,337.94,880.3,335.98z M481.51,220.09
			c0.19-2.2,0.38-4.39,0.66-7.59c-2.87,1.12-5.21,1.33-6.36,2.61c-4.65,5.15-8.95,10.6-13.3,16.01c-0.46,0.57-0.71,1.65-0.52,2.34
			c2.64,9.55,5.37,19.07,8.09,28.6c0.65,0.15,1.3,0.29,1.96,0.44c1.02-1.89,2.58-3.67,2.96-5.68
			C477.27,244.89,479.27,232.91,481.51,220.09z M67.35,380.87c4.01-4.84,8.18-9.55,11.98-14.54c4.46-5.87,4.02-8.55-1.63-14.02
			c-6.8,12.36-13.6,24.71-20.4,37.06c0.38,0.3,0.77,0.61,1.15,0.91C61.24,387.3,64.02,384.31,67.35,380.87z M861.62,276.94
			c-2.38-2.37-4.76-4.75-7.38-7.36c-1.47,4.62-2.66,8.34-3.85,12.06c7.39,2.8,7.39,2.8,7.74,9.85c2.3,1.24,4.51,2.44,6.73,3.65
			c1.4-3.15,5.07-6.11,1.7-10.47C864.86,282.45,863.55,279.91,861.62,276.94z M580.91,55.9c-0.68,2.28-1.36,4.56-2.27,7.62
			c10-0.55,10.55-11.41,18.26-13.26c-0.19-0.42-0.38-0.84-0.56-1.26c-4.92-0.73-9.84-1.46-15.39-2.29
			C580.95,50.12,580.95,52.57,580.91,55.9z M30.31,514.17c-2.18,0.1-4.36,0.2-6.54,0.3c-0.16,0.47-0.31,0.93-0.47,1.4
			c4.84,3.36,9.69,6.72,14.81,10.27C40.44,516.45,38.19,512.93,30.31,514.17z M120.63,580.39c2.15-1.25,4.29-2.51,7.53-4.4
			c-5.78-1.97-10.09-3.44-14.35-4.9C113.1,576.15,115.74,580.57,120.63,580.39z M597.46,31.19c-0.54-2.73-1.08-5.45-1.62-8.18
			c-0.53-0.01-1.05-0.03-1.58-0.04c-1.58,2.89-3.16,5.78-5.55,10.15C592.66,32.58,595.09,32.24,597.46,31.19z M18.55,159.31
			c-0.51-1.26-1.02-2.52-1.53-3.78c-0.35,0.09-0.71,0.18-1.06,0.27c-0.74,2.44-1.48,4.89-2.22,7.33c-0.29-0.31-0.58-0.61-0.87-0.92
			C14.88,161.33,16.89,160.46,18.55,159.31z M624.17,28.04c-2.06,0-4.11,0-6.63,0c0.53,2.23,0.92,3.84,1.55,6.51
			C621.48,31.9,623.14,30.07,624.17,28.04z M128.94,784.34c-3.18,1.71-3.18,1.71-1,5.49C128.3,788.17,128.65,786.52,128.94,784.34z
			 M416.67,625.55c1.13-0.53,2.27-1.06,3.4-1.59c-0.09-0.29-0.18-0.59-0.27-0.88c-3.05,0.61-6.11,1.21-10.27,2.04
			C412.41,625.34,414.17,625.48,416.67,625.55z M87.08,150.33c-0.29-0.48-0.58-0.97-0.87-1.45c-0.41,0.42-1.2,0.89-1.15,1.25
			c0.18,1.55,0.62,3.07,0.96,4.6c0.29-0.03,0.57-0.07,0.86-0.1C86.94,153.4,87.02,152.17,87.08,150.33z M321.33,52.62l0.17,0.13
			C321.5,52.75,321.5,52.48,321.33,52.62z"/>
		<path class="st1" d="M1733.54,0c0.64,0.43,1.04,0.91,0.96,1.29c-1.56,7.4-3.18,14.79-4.96,22.97c2.73,0,6.08-0.14,9.43,0.04
			c3.95,0.2,7.93,0.42,11.81,1.1c3.55,0.62,4.19,2.97,1.47,5.47c-5.52,5.06-11.26,9.88-16.9,14.82c-2.41,2.11-4.76,4.27-7.14,6.41
			c4.24,5.16,4.01,4.6,9.33,2.42c3.69-1.51,7.82-2.26,12.34-1.13c2.92,0.73,6.52-1.55,9.87-2.12c3.71-0.64,7.48-1.08,11.24-1.25
			c4.4-0.19,8.87-0.4,13.21,0.14c4.51,0.55,8.2,3.26,9.41,7.74c2.35,8.67,9.08,11.36,16.64,13.17c5.69,1.37,11.2,2.95,15.02,7.93
			c1.83,2.38,2.35,4.14-1.29,4.86c-6.84,1.36-13.69,2.66-21.26,4.13c0.4-0.56,0.11-0.33,0.06-0.06
			c-1.69,9.41-2.26,10.07-13.12,10.56c-4.74,0.21-9.55-0.2-14.27-0.82c-9.74-1.28-16.92-6.75-22.2-14.77
			c-3.4-5.18-5.08-5.4-9.81-1.23c-8.98,7.91-17.69,16.23-27.33,23.25c-6.11,4.45-13.44,6.95-21.6,7.44
			c-4.82,0.29-9.95,0.36-15.12,2.73c-5.58,2.56-12.86,1.48-19.41,1.81c-1.93,0.1-4.02-0.02-5.8-0.68c-5.8-2.15-6.21-3.56-3.72-12.62
			c-9.18-1.15-18.19-2.5-27.25-3.24c-1.88-0.15-4.88,1.48-5.72,3.13c-1.34,2.61-3.58,6.05,0.57,8.75c4.74,3.07,9.46,6.21,14.02,9.53
			c1.5,1.09,2.5,2.86,3.72,4.32c-1.46,0.91-2.87,2.51-4.38,2.62c-5.64,0.4-11.32,0.31-16.98,0.39c-2.07,0.03-4.14,0-6.75,0
			c2.61,3.21,5.29,5.53,6.73,8.46c3.73,7.58-1.11,14.79-9.45,14.35c-8.42-0.44-16.82-1.2-25.81-1.86c-0.01,0.03-1.01,1.23-0.91,2.34
			c0.48,5.7-3.23,7.2-7.57,7.13c-6.01-0.11-12.03-0.8-17.97-1.68c-1.18-0.18-3.01-2.44-2.92-3.62c0.46-5.93,1.46-11.81,2.38-18.49
			c-2.91,0.9-6.65,2.28-10.51,3.2c-9.97,2.37-20.17,3.4-30.07,0.51c-7.94-2.32-9.37-13.45-2.98-18.94c0.87-0.75,1.84-1.39,2.7-2.16
			c1.65-1.48,3.25-3.01,4.88-4.52c-3.06-1.99-5.9-4.65-9.26-5.76c-3.02-1-6.62-0.07-9.93-0.38c-9.24-0.86-18.44-2.39-27.69-2.77
			c-7.62-0.31-15.29,0.64-23.9,1.08c13.27,10.27,29.47,7.9,43.44,12.63c0.03,0.59,0.06,1.19,0.1,1.78
			c-3.43,1.2-6.78,2.99-10.31,3.46c-6.62,0.88-13.35,0.99-20.23,1.43c-0.42,3.91-1.74,6.92,3.97,6.27
			c3.24-0.37,6.92,0.73,10.03,2.05c4.5,1.91,0.18,5.3,0.74,8.11c5.29,0,10.66-0.19,16,0.06c3.88,0.18,7.83,0.59,11.57,1.58
			c2.84,0.75,2.95,3.89,0.37,5.71c-1.87,1.32-4.01,2.24-5.91,3.53c-0.91,0.62-1.54,1.66-2.29,2.51c1.16,0.67,2.25,1.55,3.5,1.96
			c3.21,1.06,6.55,1.76,9.73,2.89c1.73,0.62,4.33,1.02,3.03,4.18c-0.07,0.17,1.96,1.31,3.08,1.86c5.39,2.65,11.07,4.82,16.12,8
			c5.91,3.73,4.62,16.1-1.78,18.75c-4.18,1.73-8.69,2.65-12.92,4.27c-1.15,0.44-2.47,2.06-2.58,3.24c-0.27,2.99,0.49,6.08,0.15,9.05
			c-0.51,4.43-3.58,6.93-7.84,7.48c-9.53,1.22-19.1,3-28.64,2.96c-8.15-0.03-17.15,1.73-24.18-4.61c-1.18-1.06-2.04-3.15-2.02-4.75
			c0.05-4.24,0.84-8.47,0.97-12.71c0.08-2.56-1.63-3.31-3.64-1.8c-3.84,2.86-7.19,6.5-11.3,8.83c-9.24,5.22-16.89,13.99-28.54,14.04
			c-4.97,0.02-10.26-0.22-14.85-1.87c-5.14-1.85-5.11-4.82-1.21-8.88c4.25-4.43,8.46-8.91,12.65-13.4c0.54-0.57,0.88-1.33,1.94-2.96
			c-3.88,0-7.02,0.29-10.07-0.09c-2.49-0.31-6.03-0.69-7.09-2.33c-3.07-4.76-7.41-3.6-11.38-3.34c-9.29,0.62-18.19-0.53-26.93-3.82
			c-3-1.13-4.7-2.18-2.65-6c-3.46-0.19-6.48-0.36-9.6-0.54c2.25-7.21,1.75-7.94-5.48-7.91c-4.81,0.02-9.62,0.24-14.44,0.36
			c-0.67,0.02-1.38,0.14-1.99-0.03c-4.29-1.23-8.33-1.37-12.92-0.29c-6.18,1.45-12.76,1.5-19.17,1.5c-1.76,0-4.12-1.99-5.07-3.7
			c-0.54-0.98,0.73-3.82,1.98-4.8c6.57-5.13,13.4-9.93,20.13-14.86c0.36-0.27,0.62-0.68,1.27-1.42c-3.13-0.51-6.07-1.74-8.64-1.19
			c-2.19,0.47-4.08,2.83-5.88,4.59c-3.6,3.51-8.14,4.63-12.83,5.01c-4.34,0.35-8.74,0.18-13.1,0.01c-5.1-0.2-10.2-0.52-15.27-1.04
			c-4.99-0.51-10.1-0.82-14.84-2.27c-1.66-0.51-3.62-4.37-3.27-6.3c1.04-5.7,3.17-11.21,4.78-16.5c-2.68-1.08-6.05-2.09-9.07-3.73
			c-3.99-2.17-4.34-4.76-0.53-7.39c4.66-3.22,9.86-5.67,14.91-8.3c6.51-3.39,13.01-6.46,20.85-5.5c1.87,0.23,4.88-2.12,6.05-4.07
			c3.97-6.64,9.55-8.91,17.05-8.54c7.73,0.38,15.5-0.09,23.25-0.04c2.4,0.02,4.8,0.55,7.51,0.89c0-2.73,0-5.14,0-7.44
			c-5.95,0.45-11.76,1.38-17.51,1.1c-2.75-0.13-5.66-2.26-7.9-4.18c-0.58-0.5,0.78-3.8,1.78-5.5c2.22-3.78,4.78-7.36,7.46-11.42
			c-2.46-0.75-4.05-1.24-5.64-1.73c-0.16-0.55-0.32-1.1-0.47-1.65c5.18-2.51,10.36-5.01,15.54-7.52c0.04-0.54,0.08-1.08,0.12-1.63
			c-6.82-2.73-13.43-6.45-20.51-8c-17.24-3.77-34.12-8.29-49.73-16.74c-1.01-0.55-2.09-0.98-3.17-1.36
			c-0.44-0.15-0.97-0.03-2.05-0.03c0,4.91,0.14,9.75-0.05,14.58c-0.13,3.28-0.51,6.58-1.13,9.8c-1.34,6.98-6.23,10.94-12.63,12.55
			c-5.16,1.3-10.64,1.37-15.79,1.96c2.62,5.6,5.67,11.52,8.15,17.68c1.07,2.66,1.29,5.79,1.32,8.71c0.06,6.85-2.7,9.47-9.56,9.65
			c-1.33,0.03-2.72,0.32-3.98,0.02c-4.15-0.96-5.17,1.02-5.4,4.75c-0.59,9.52-3.29,12.45-12.75,14.31
			c-5.27,1.04-10.53,2.26-15.86,2.71c-2.19,0.18-5.11-0.88-6.68-2.42c-2.34-2.3-3.11-1.43-4.27,0.74c-1.79,3.35-3.61,6.7-5.58,9.94
			c-3.62,5.95-14.75,9.26-20.32,5.45c-2.77-1.89-4.41-5.42-6.65-8.33c-6.67,1.61-13.84-3.17-15.53-10.67
			c-1.38-6.13-2.72-12.26-4.14-18.38c-0.62-2.65-1.71-4.5-4.72-2.19c-3.14,2.41-6.32,4.77-9.62,7.26c2.87,3.72,5.74,7.05,8.17,10.68
			c3.36,5.02,2.56,10.88-1.43,15.29c-0.88,0.97-1.19,2.55-1.55,3.9c-2.13,8.04-4.05,14.86-15.93,13.23
			c-8.52-1.17-9.7-1.18-10.7-9.41c-0.1-0.81-0.13-1.64-0.24-3.19c-6.16,4.03-7.38-1.31-9.92-4.3c-0.89-1.05-2.03-2.11-3.28-2.59
			c-4.94-1.9-9.42-3.43-14.68,0.82c-3.98,3.21-9.95,2.67-15.03,1.21c-5.88-1.69-6.64-4.77-2.72-9.28c1.28-1.47,2.64-2.86,4.3-4.65
			c-4.84-2.07-9.11-4.28-5.23-10.58c-0.5-0.28-1-0.55-1.5-0.83c-1.44,1.19-3.63,2.1-4.19,3.62c-2.37,6.46-6.15,11.51-12.11,15.1
			c-1.19,0.72-2.16,3.09-1.98,4.55c0.65,5.36,1.83,10.66,2.81,15.99c0.58,3.18,1.17,6.36,1.69,9.21c-5.82,4.27-11.45,2.74-17.1,2.02
			c-2.7-0.34-5.5-0.14-8.24,0.11c-10.28,0.93-11.61-6.03-12.8-12.88c-0.31-1.77-0.05-3.63-0.05-6.15
			c-7.41,1.61-10.96-3.36-14.8-8.47c0.57-0.96,1.28-2.17,2.16-3.68c-0.75-0.32-1.28-0.7-1.84-0.75c-8.64-0.83-9.89-2.16-10.58-10.77
			c-0.37-4.54-4.08-4.59-6.95-3.85c-4,1.03-6.02-0.44-7.99-3.56c-1.93-3.06-0.99-5.22,0.63-8.11c6.58-11.71,18.34-14.13,29.73-17.41
			c2.61-0.75,5.06-2.02,7.67-2.75c3.47-0.97,7.01-1.67,10.53-2.44c1.74-0.38,3.5-0.68,5.1-0.98c2.62-22.96,5.2-45.55,7.94-69.53
			c-8.69,4.1-16.24,7.66-24.75,11.69c2.96,3.23,5.14,5.61,7.32,7.99c1.57,1.72,3.23,3.37,4.67,5.19c3.01,3.78,6.9,7.78,4.05,12.88
			c-2.49,4.46-7.46,3.85-11.95,3.37c-1.79-0.19-3.61-0.03-5.98-0.03c0.79,3.83,1.48,7.18,2.32,11.27c-0.02,0.03-1.11,0.73-1.2,1.53
			c-0.79,6.86-6.11,9.08-11.33,11.62c-6.28,3.06-12,1.05-17.28-2.07c-2.7-1.59-4.32-4.91-6.8-7.01c-2.25-1.91-5.01-3.24-8.11-5.17
			c-2.05,8.86-6.24,15.14-14.51,15.92c-10.51,1-21.33,1.08-27.61-12.02c-1.86,3.54-3.97,5.88-4.25,8.44
			c-0.69,6.26-5.37,5.77-9.23,5.76c-6.59-0.01-13.18-0.84-19.77-1.25c-6.63-0.41-9.82-4.8-7.82-11.09c0.69-2.16,1.75-4.21,2.76-6.6
			c-7.64-1.25-14.92-2.4-22.17-3.64c-6.3-1.08-12.69-1.9-16.84-7.79c-3.66-5.19-2.43-11,3.29-14.4c1.51-0.9,3.03-1.77,5.26-3.08
			c-8.04-4.92-14.99-10.81-23.97-12.27c-3.7-0.6-7.77,1.28-11.07-2.04c-2.77-2.79-5.69-5.43-8.65-8.45
			C841.69,0,922.38,0,1003.57,0.42c0.48,5.34,1.24,10.42,0.29,15.15c-2.74,13.69-5.18,27.33-4.96,41.38
			c0.05,3.23,0.54,5.79,3.17,7.35c3.59,2.12,4,5.58,4.94,9.06c1.79,6.61,2.28,13.72,7.75,18.97c1.82,1.75,2.65,4.53,4.36,7.61
			c0.34-0.11,1.99-0.96,3.7-1.11c4.86-0.43,10.21-1.95,14.5-0.49c5.8,1.97,10.56,1.11,15.71-0.97c2.77-1.12,5.79-1.68,8.43-3.02
			c1.49-0.76,3.07-2.4,3.53-3.96c2.76-9.35,5.35-18.75,7.72-28.21c2.06-8.25,3.75-16.6,5.3-23.57c-4.41-3.13-7.47-5.26-10.47-7.46
			c-3.97-2.92-7.91-5.87-11.83-8.86c-4.7-3.58-9.13-7.25-7.7-14.29c0.17-0.86-1.87-2.21-2.95-3.27c-1.66-1.61-3.38-3.16-5.07-4.73
			c60.02,0,120.04,0,180.42,0.41c1.56,1.29,2.65,2.43,3.98,2.99c2.76,1.14,5.69,1.85,8.45,2.98c1.5,0.61,2.71,1.96,4.21,2.58
			c18.34,7.61,36.68,15.24,55.12,22.62c3.11,1.24,6.68,1.34,11.3,2.2c-1.1-2.73-1.48-4.46-2.4-5.82c-2.98-4.38-6.1-8.67-9.3-12.89
			c-3.85-5.08-7.85-10.05-11.78-15.06c69.02,0,138.04,0,207.3,0.38c1.36,6.2,0.49,7.76-5.24,9.37c-3.04,0.86-6.19,1.33-9.29,1.97
			c0.07,0.68,0.14,1.36,0.21,2.04c5.32-0.25,10.64-0.5,16.83-0.8c-2.16,1.01-3.5,1.64-5.26,2.46c5.35,2.85,9.99,5.8,14.99,7.87
			c8.51,3.53,17.03,7.43,25.94,9.46c9.11,2.07,18.68,2.09,28.05,2.92c0.9,0.08,1.94-0.34,2.78-0.79
			c11.09-5.86,22.17-11.74,33.19-17.72c1.17-0.63,2.78-2.02,2.75-3.02c-0.15-4.73-0.79-9.44-1.26-14.16
			C1638.36,0,1685.72,0,1733.54,0z M1419.51,60.74c-5.22-5.56,1.55-9.45,2.15-14.64c-1.76,0-3.37,0.1-4.97-0.02
			c-7.77-0.58-15.63-0.69-23.29-1.98c-9.82-1.65-10.81-3.49-9.53-14.04c-15.09,0-30.06-0.05-45.01,0.13
			c-0.87,0.01-2.65,2.32-2.43,2.74c4.03,7.88,10.01,13.81,18.31,17.2c2.79,1.14,7.72,0.06,5.8,5.93c-0.14,0.42,1.27,1.35,1.95,2.05
			c7.07,7.18,15.52,12.4,24.29,17.2c3.99,2.18,7.52,5.35,12.55,2.21c1.37-0.85,3.6-0.6,5.4-0.42c17.71,1.74,34.88-3.02,52.34-4.26
			c3.53-0.25,7.19,0.05,10.67,0.73c3.58,0.7,2.91,3.36,1.04,5.15c-1.33,1.28-3.47,1.91-5.36,2.39c-4.54,1.16-9.14,2.06-13.16,2.94
			c7.62,3.85,15.36,7.77,23.13,11.66c0.42,0.21,0.98,0.15,1.47,0.21c10.06,1.1,20.23,1.56,30.13,3.48
			c8.17,1.58,13.48-2.99,20.92-6.5c-3.01-0.84-4.77-1.25-6.47-1.81c-5.81-1.94-11.7-3.69-17.37-6c-3.57-1.46-4.22-5.03-1.92-8.11
			c0.7-0.94,1.92-1.5,3.1-2.37c-2.49-1.44-4.11-2.26-5.62-3.26c-3.92-2.59-3.97-5.22,0.27-7.09c3.73-1.64,7.8-2.68,11.82-3.43
			c3.77-0.7,7.69-0.67,12.71-1.05c-4.6-2.33-9.44-3.25-11.14-6.07c-1.73-2.88-0.38-7.62-0.38-12.4c-3.29-0.91-7.69-2.14-12.14-3.37
			c-1.32,7.28-1.3,7.51-8.41,8.22c-4.09,0.41-8.48,0.7-12.36-0.35c-8.42-2.26-13.21,1.06-17.34,8.13
			C1453.41,66.35,1430.19,66.44,1419.51,60.74z M1360.13,122.42c1.91,1.82,3.56,4.07,5.77,5.37c8.72,5.14,17.72,9.81,26.41,15
			c4.42,2.64,6.37,0.32,8.93-3.32c-2.07-0.6-3.62-1.06-5.17-1.5c-5.9-1.64-12.01-2.79-17.63-5.11c-2.64-1.09-4.35-4.42-6.48-6.74
			c2.52-1.61,4.91-4.3,7.59-4.62c5.55-0.65,11.4-0.85,16.83,0.25c7.24,1.47,14.22,4.3,21.27,6.67c4,1.35,7.84,2.45,11.91-1.98
			c-9.51-3.85-17.84-8.7-27.77-9.01c-3.14-0.1-6.32-0.13-9.4-0.66c-4.39-0.76-7.66-2.82-7.43-8.11c0.2-4.62-0.33-9.32,0.34-13.85
			c0.47-3.16-0.55-3.76-3.13-4.77c-5.51-2.17-10.94-4.67-16.11-7.56c-7.58-4.25-14.9-8.98-22.95-13.88c0,9.06,0.15,17.39-0.08,25.71
			c-0.08,3.1,1.2,4.46,3.87,5.45c4.41,1.65,4.46,2.64-0.11,6.25C1351.06,111.33,1355.33,116.63,1360.13,122.42z M1646.11,57.9
			c0.32,3.8,0.42,7.64,1.1,11.37c0.2,1.08,2.04,2.62,3.16,2.65c8.07,0.2,14.79-3.09,19.83-9.24c3.84-4.69,5.81-11.17,12.12-11.75
			c-1.05-2.72-1.92-4.97-2.73-7.05c-12.49,1.43-25.33,2.91-37.08,4.26C1643.94,51.7,1644.99,54.36,1646.11,57.9z"/>
		<path class="st0" d="M0,169.48c4.36,0.16,9.26-1.09,12.53,3.44c0.4,0.55,2.51-0.12,3.37-0.19c1.65,1.73,3.1,4.64,5.08,5.06
			c4.24,0.9,8.69,0.49,11.29-4.17c1.66-2.98,3.63-4.3,7.66-3.25c9.3,2.41,13.38-1.71,16.03-13.36c0.55-2.4,0.76-4.88,1.11-7.22
			c6.68-1.24,9.19,0.34,10.73,6.13c1.92,7.18,4.03,14.31,5.95,21.1c-2.04,2.23-3.84,4.67-6.1,6.56c-8.09,6.76-3.07,14.66-1.46,21.77
			c1.01,4.47,6.24,4.78,10.91,4.32c1.45-3.91,2.93-7.89,4.5-12.12c1.36,0.52,2.91,1.12,4.55,1.75c-1.22,1.98-2.51,3.75-3.44,5.69
			c-0.55,1.15-0.53,2.57-0.76,3.87c1.25-0.06,2.53,0.03,3.73-0.23c0.93-0.2,1.76-0.82,3.02-1.44c0.27,1.15,0.58,2.01,0.66,2.89
			c0.44,4.96,2.76,8.48,8.05,8.06c3.4-0.27,6.63-2.24,10.04-2.93c5.44-1.09,4.76-4.99,4.7-8.87c-0.1-7.56,0.39-14.97,3.53-22.1
			c1.15-2.61,0.52-5.95,1.28-8.8c0.41-1.54,2.32-4.09,3.07-3.93c7.42,1.59,12.18-3.54,17.64-6.66c3.43-1.96,6.54-4.58,9.49-7.25
			c1.16-1.04,1.58-2.97,2.15-4.56c0.53-1.49,0.82-3.07,1.07-4.05c2.93,0.79,5.41,1.46,7.9,2.13c-0.11,0.29-0.22,0.59-0.33,0.88
			c-1.29-0.46-2.59-0.92-4.21-1.5c-0.4,3.89-0.37,7.37,3.25,8.52c3.93,1.26,8.64,1.99,11.55-1.84c2.8-3.69,5.35-7.92,6.6-12.31
			c1.33-4.69,2.05-10.05,1.19-14.77c-1.39-7.62,0.71-13.3,5.76-18.78c10.81-11.73,15.95-26.64,22.16-40.92
			c0.66-1.53,1.38-3.05,1.81-4.65c0.84-3.14,2.29-3.85,5.78-3.4c5.5,0.7,11.29,0.51,15.81-5.98c1.79,9.37,9.12,7.78,14.74,8.88
			c1.61,0.32,3.98-2.28,5.73-3.85c2.75-2.46,4.52-7.18,9.48-3.46c3.71-2.78,8.42-4.88,10.88-8.51c3.57-5.28,1.87-10.7-3.75-16.78
			c5.36-1.03,10.18-1.96,16.24-3.13c-1.81,4.55-3.09,7.91-4.5,11.21c-0.52,1.21-1.53,2.23-2,3.45c-4.36,11.3-12.53,17.5-23.8,22.31
			c-15.11,6.45-29.72,14.71-40.29,28.23c-4.04,5.17-9.28,9.61-12.39,15.26c-4.36,7.91-7.14,16.68-10.78,25
			c-1.72,3.93-4.2,7.55-5.72,11.55c-2.88,7.55-6.16,15.09-7.73,22.94c-2.51,12.55-4.28,25.28-10.51,36.63
			c-4.7,8.57-5.95,17.87-7.34,27.18c-2.29,15.44-4.25,30.92-6.34,46.39c-1.05,7.77-4.08,14.65-9.05,20.74
			c-5.2,6.37-9.34,13.1-10.5,21.66c-0.79,5.8-3.41,11.36-5.48,17.87c-19.53-9.57-29.11,3.71-39.33,17.26
			c-2.86-3.91-5.69-6.85-7.43-10.33c-3.84-7.67-14.94-9.41-19.6-1.82c-3.44,5.6-7.71,4.47-11.87,4.1
			c-7.72-0.68-12.57,2.41-14.17,9.98c-0.72,3.41-1.77,6.75-2.71,10.11c-0.16,0.57-0.47,1.1-0.15,0.36
			c-5.62-1.51-10.59-3.13-15.68-4.11c-3.67-0.71-8.58,3.92-8.44,7.77c0.27,7.22,0.86,14.44,1.34,22.09c-1.71-0.14-3.63-0.3-6.01-0.4
			C0,320,0,244.97,0,169.48z"/>
		<path class="st0" d="M1039.54,0c2.16,1.57,3.88,3.12,5.54,4.73c1.08,1.05,3.12,2.41,2.95,3.27c-1.43,7.05,3,10.71,7.7,14.29
			c3.92,2.99,7.86,5.94,11.83,8.86c3,2.2,6.06,4.33,10.47,7.46c-1.55,6.97-3.24,15.32-5.3,23.57c-2.36,9.46-4.96,18.86-7.72,28.21
			c-0.46,1.56-2.04,3.2-3.53,3.96c-2.64,1.34-5.66,1.9-8.43,3.02c-5.15,2.08-9.9,2.94-15.71,0.97c-4.29-1.46-9.64,0.06-14.5,0.49
			c-1.71,0.15-3.37,1-3.7,1.11c-1.71-3.08-2.54-5.86-4.36-7.61c-5.47-5.25-5.96-12.36-7.75-18.97c-0.94-3.48-1.35-6.94-4.94-9.06
			c-2.63-1.55-3.12-4.12-3.17-7.35c-0.22-14.05,2.22-27.7,4.96-41.38c0.95-4.73,0.19-9.81,0.17-15.15C1015.69,0,1027.38,0,1039.54,0
			z"/>
		<path class="st0" d="M495.03,78.04c-0.89-3.97-1.97-8.55-6.54-8.97c-5.5-0.5-12.06-2.27-15.03,4.87
			c-3.15-2.05-6.38-3.58-8.82-5.93c-1.59-1.53-1.94-4.3-3.04-6.4c-2.79-5.31-8.26-3.18-12.54-4.31c-0.95-0.25-2.84,0.61-3.02,0.28
			c-2.64-5.02-7.79-3-11.71-4.27c-2.99-0.97-7.45,2.35-7.58,5.61c-0.2,4.94-0.05,9.9-0.05,15.03c-3.54-0.55-7.19-1.26-10.86-1.67
			c-5.07-0.55-9.04,3.23-9.29,8.98c-0.14,3.28,0.25,6.58,0.45,10.9c-4.44-8.35-6.72-16.34-7.16-24.79c-0.2-3.9,1.04-7.28,6.05-7.1
			c5.63,0.2,7.46-3.54,8.06-8.18c0.4-3.09,0.02-6.28,0.47-9.36c1.18-7.99,2.56-15.95,4.01-23.89c1.09-6,2.42-11.96,3.6-18.38
			C438.36,0,454.71,0,471.53,0c-0.49,0.86-1.44,2.44-2.4,2.45c-4.97,0.05-9.14,0.87-11.16,6.32c-0.43,1.16-2.73,2.33-4.14,2.3
			c-6.43-0.12-12.88-1.16-19.27-0.84c-3.25,0.16-7.76,1.66-9.27,4.07c-2.26,3.61-1.38,8.25,2.31,11.7c1.08,1.01,1.5,2.83,1.96,4.36
			c1.95,6.56,6.38,9.12,13.22,9.11c3.59-0.01,7.63,1.28,10.68,3.22c8.68,5.55,18.45,4.78,26.93,2.44c5.59-1.54,10.87-2.71,16.8-2.84
			c4.48,12.11,6.27,24.11-1.85,35.74C494.99,78,495.03,78.04,495.03,78.04z"/>
		<path class="st0" d="M1590.55,0c0.92,4.72,1.57,9.43,1.71,14.16c0.03,0.99-1.58,2.38-2.75,3.02
			c-11.02,5.99-22.1,11.86-33.19,17.72c-0.84,0.44-1.88,0.87-2.78,0.79c-9.38-0.83-18.95-0.85-28.05-2.92
			c-8.91-2.02-17.43-5.93-25.94-9.46c-5-2.07-9.64-5.02-14.99-7.87c1.76-0.82,3.09-1.45,5.26-2.46c-6.19,0.29-11.51,0.55-16.83,0.8
			c-0.07-0.68-0.14-1.36-0.21-2.04c3.1-0.65,6.25-1.12,9.29-1.97c5.73-1.61,6.59-3.18,5.71-9.37C1500.03,0,1512.05,0,1524.3,0.26
			c-3.06,1.96-6.35,3.66-9.87,5.48c4.15,5.8,9.66,4.19,14.78,4.46c-1.27,4.94,0.88,7.63,5.13,8.15c5.36,0.66,10.98,1.69,16.17,0.77
			c12.54-2.23,21.58-10.72,30.5-19.12C1584.04,0,1587.07,0,1590.55,0z"/>
		<path class="st0" d="M1279.54,0c4.4,5.02,8.4,9.99,12.25,15.06c3.2,4.22,6.31,8.52,9.3,12.89c0.93,1.36,1.3,3.09,2.4,5.82
			c-4.62-0.86-8.19-0.95-11.3-2.2c-18.44-7.38-36.78-15.01-55.12-22.62c-1.5-0.62-2.71-1.96-4.21-2.58
			c-2.76-1.13-5.7-1.84-8.45-2.98c-1.33-0.55-2.42-1.7-3.51-2.99C1240.36,0,1259.72,0,1279.54,0z"/>
		<path class="st0" d="M555.53,0c4.64,7.03,8.76,14.1,13.01,21.08c1.02,1.68,2.46,3.09,3.1,5.32c-7.17-8.42-15.85-4.6-23.97-3.81
			c-0.92,9.83-1.74,19.66-2.83,29.45c-0.31,2.81-2.15,5.57-2.02,8.29c0.29,6,2.73,8.28,8.64,9.79c1.75,0.45,3.44,1.16,5.03,1.7
			c-0.12,0.8-0.13,0.89-0.14,0.98c-0.05-0.11-0.09-0.3-0.17-0.32c-3.34-0.95-6.62-2.34-10.03-2.73c-5.41-0.61-5.88-4.06-5.99-8.33
			c-0.2-7.96-0.37-15.94-1.13-23.85c-0.32-3.33-2.2-6.5-3.24-9.79c-0.54-1.7-1.01-3.49-1.1-5.25c-0.27-5.45,0.11-10.9-4.05-15.5
			c-1.14-1.26-0.55-4.08-0.68-6.62C538.36,0,546.71,0,555.53,0z"/>
		<path class="st1" d="M1580.54,0c-8.45,8.4-17.49,16.89-30.03,19.12c-5.19,0.92-10.81-0.11-16.17-0.77
			c-4.25-0.52-6.39-3.21-5.13-8.15c-5.12-0.27-10.63,1.34-14.78-4.46c3.52-1.82,6.81-3.52,10.34-5.48C1543.36,0,1561.72,0,1580.54,0
			z"/>
		<path class="st0" d="M281.6,0c1.35,3.3,2.31,6.59,3.56,10.93c-7.34,2.01-16.04,4.4-24.75,6.79c-0.19-0.64-0.39-1.29-0.58-1.93
			c2.48-0.7,5.62-0.7,7.27-2.27c1.94-1.85,2.59-5.06,3.61-7.26c2.44-1.92,4.77-3.74,7.19-5.91C279.07,0,280.13,0,281.6,0z"/>
		<path class="st1" d="M18.02,792.2c1.73-0.37,3.1-0.63,4.68-0.95c-2.31,7.81-8.84,5.24-14.14,5.56
			C11.59,795.31,14.62,793.8,18.02,792.2z"/>
		<path class="st0" d="M456.16,175.97c2.82,0.41,5.29,0.59,8.47,0.82c0.15,0.84,0.43,2.35,0.86,4.75
			c-11.79,1.73-23.17,3.4-33.99,4.99c-2.37-0.82-4.43-1.54-6.95-2.42c1.66-5.29-3.02-6.63-7.15-7.81
			c-4.42-1.26-9.04-1.78-13.83-2.66c-2.42-12.14-18.41-18.07-28.75-16.34c-1.73,0.29-3.63,0.93-4.97,2.01
			c-6.35,5.14-12.78,10.23-18.69,15.85c-3.68,3.49-6.45,7.94-9.72,11.88c-2.68,3.24-5.53,6.33-8.22,9.56
			c-0.59,0.71-1.15,1.73-1.14,2.6c0.11,8.26,0.28,16.52,0.55,24.77c0.17,5.21,0.54,10.42,0.81,15.63c-0.41,0.17-0.83,0.34-1.24,0.5
			c-1.68-1.47-3.76-2.67-4.96-4.46c-5.3-7.96-10.37-16.07-15.47-24.16c-1.59-2.53-2.65-5.44-4.51-7.74
			c-6.7-8.27-7.46-17.59-4.96-27.35c1.61-6.28,3.85-12.4,5.95-18.54c9.07-26.53,19.57-52.6,26.09-79.97
			c1.14-4.79,2.91-9.42,4.35-14.01c6.49,1.71,12.71,3.29,18.87,5.03c1.21,0.34,2.25,1.31,3.33,2.06c6.24,4.3,12.35,3.49,17.48-3.04
			c0.68,1.84,1.24,3.23,1.71,4.64c4.44,13.22,8.86,26.45,13.33,39.66c0.42,1.24,0.9,2.98,1.86,3.44c5.27,2.53,5.68,6.45,4.91,11.72
			c-0.33,2.28,1.77,5.53,3.68,7.41c6.61,6.49,14.53,9.36,24.07,8.38c3.3-0.34,6.92,1.58,10.25,2.84c0.89,0.34,1.95,2.17,1.77,3.1
			c-1.11,5.76,3.13,7.58,6.9,9.53c2.91,1.5,6.13,2.41,8.46,3.3c-0.79,3.77-1.74,7.26-2.11,10.8
			C453.13,173.65,454.91,174.74,456.16,175.97z"/>
		<path class="st0" d="M225.68,284.66c-4.46,6.88-8.82,13.39-12.87,20.1c-1.58,2.62-2.81,3.9-6.23,2.73
			c-5.92-2.02-11.49-0.36-15.13,4.64c-1.97,2.71-2.37,6.57-3.33,9.46c-1.53,0.64-3.97,0.9-5.03,2.25
			c-2.64,3.37-4.68,7.23-6.92,10.91c-0.93,1.53-1.74,3.13-2.25,4.05c-5.22-1.42-9.86-2.76-14.55-3.93
			c-7.16-1.78-12.4,3.13-11.29,10.43c0.4,2.61,0.64,5.25,0.9,7.88c0.06,0.56-0.12,1.14-0.27,2.37c-3.84-3.41-5.46-6.27-3.84-11.13
			c7.89-23.63,15.71-47.29,22.88-71.14c3.47-11.56,5.15-23.65,8.22-35.35c1.98-7.54,5.04-14.79,7.57-22.19
			c1.29-3.78,2.79-7.52,3.63-11.4c2.98-13.81,13.91-22.28,21.7-32.85c2.46-3.34,4.85-6.74,7.61-10.58
			c8.04,8.69,16.48,6.45,24.93,7.18c-2.69,5.93-5.34,11.23-7.49,16.72c-1.06,2.69-1.6,5.73-1.67,8.63
			c-0.11,4.49,4.01,7.19,8.36,6.02c1.17-0.31,2.49-0.02,3.68-0.28c1.62-0.36,3.9-0.49,4.65-1.57c2.62-3.79,4.76-7.92,6.97-11.98
			c2.14-3.93,3.89-8.1,6.35-11.81c0.9-1.36,3.28-2.05,5.11-2.42c5.3-1.09,10.7-1.68,11.82-8.64c0.12-0.73,2.7-1.72,3.82-1.42
			c0.92,0.25,2.06,2.36,1.88,3.45c-0.55,3.34-1.69,6.59-2.62,9.96c-7.57-3.2-12.44,0.96-12.08,7.88c0.24,4.59-1.71,9.35-3.02,13.94
			c-3.23,11.36-6.65,22.67-10.02,33.99c-0.37,1.25-0.91,2.45-1.4,3.78c-6.73-6.97-14.67-8.85-22.11-5.31
			c-1.01,0.48-2.12,1.06-2.8,1.9c-2.28,2.82-4.38,5.77-6.71,8.88c1.05-0.14,2.21-0.3,3.5-0.47c0.14,0.39,0.45,0.83,0.42,1.24
			c-0.67,7.62-1.2,15.26-2.13,22.86c-0.72,5.88-1.38,11.45,7.31,13.32C230.28,279.78,228.09,282.07,225.68,284.66z"/>
		<path class="st0" d="M550.05,356.03c1.03-4.01,5.12-7.29,2.88-12.09c-0.21-0.45-0.12-1.11-0.43-1.42c-7.13-7.13-3.1-16-3.74-24.11
			c-0.5-6.29-0.32-12.64-0.91-18.92c-0.27-2.89-1.3-5.86-2.61-8.48c-4.18-8.35-17.82-7.69-23.11-1.57
			c-2.05,2.37-4.17,3.67-7.59,4.48c-4.11,0.98-7.53,4.86-12.1,8.09c-0.69-0.98-2.37-2.42-2.78-4.16
			c-2.28-9.52-4.63-19.06-6.13-28.71c-0.58-3.72,0.95-7.79,1.6-11.69c1.63-9.68,3.29-19.34,4.98-29.01c0.19-1.09,0.69-2.12,0.98-3
			c7.43,1.79,14.18,2.1,20.06-4.54c1.27,5.06,2.08,9.9,3.75,14.42c1.56,4.25,3.05,9.37,6.29,11.99c7.17,5.8,18.28,0.38,19.81-8.82
			c0.95-5.73,2.06-11.43,3.4-18.83c3.7,4.24,6.46,7.57,9.4,10.74c2.66,2.87,5.36,5.75,8.31,8.31c4.68,4.06,10.14,2.11,15.12,0.96
			c4.1-0.95,6.16-6.18,4.13-10.82c-2.98-6.82-6.7-13.32-10.17-19.93c-1.51-2.87-3.18-5.66-5.1-9.06c3.88-0.6,7.35-0.31,9.89-1.7
			c6.08-3.33,11.48-7.93,17.63-11.09c3.76-1.93,8.4-2.14,12.64-3.12c0.37,0.46,0.74,0.93,1.11,1.39c-0.7,1.65-1,3.69-2.16,4.88
			c-4.63,4.73-9.4,9.34-14.35,13.72c-8.1,7.18-7.18,16.8,1.87,22.65c8.58,5.55,18.3,5.35,28.13,6.67c0,1.31,0,2.68,0,4.57
			c-3.32-0.71-6.48-2.23-9.31-1.75c-2.52,0.42-5.23,2.63-6.87,4.8c-2.83,3.76-4.65,8.28-7.42,12.11c-1.08,1.49-3.47,2.27-5.42,2.86
			c-6.82,2.04-13.77,3.64-20.53,5.85c-3.29,1.07-6.25,2.82-6.19,7.38c0.07,5.04,1.38,9.01,5.79,11.89
			c8.29,5.41,21.62,5.17,31.97-4.64c4.16-3.95,9.06-7.13,13.62-10.67c3.51,5.55,3.03,12.12-0.04,16.89
			c-10.69,16.61-26.57,28.16-40.19,41.92c-7.23,7.31-14.39,14.71-21.98,21.62c-4.1,3.73-9.06,6.52-13.97,9.82
			C549.99,355.99,550.05,356.03,550.05,356.03z"/>
		<path class="st0" d="M277.28,419.02c2.83-4.21,5.54-8.09,8.5-11.75c0.58-0.71,2.17-0.92,3.26-0.85
			c11.08,0.71,15.11-8.57,17.18-17.13c0.34-1.42,0.44-2.91,0.63-4.24c5.39-0.3,10.92,0.61,15.32-1.21c4.14-1.7,7.09-6.28,10.92-9.92
			c2.17,5.88,3.89,10.6,1.78,17.21c-2.7,8.49-2.24,18.71,7.24,22.38c4.04,1.56,8.95,1.02,13.47,1.15c1.59,0.05,3.21-0.74,4.81-1.17
			c4.42-1.19,7.01-0.11,9.39,4.47c4.25,8.18,9.94,12.29,24.07,10.02c0.93-0.15,1.85-0.38,4.04-0.84c0,8-0.58,15.49,0.15,22.85
			c0.86,8.71,2.36,17.43,4.57,25.9c0.99,3.81,4.35,7.01,7.35,11.57c-3.18,2.78-7.42,6.49-12.67,11.07
			c-0.62-7.11-0.84-12.99-1.69-18.79c-1.3-8.91-6.04-15.72-15.02-17.65c-5.09-1.09-10.81-1.83-15.72,2.49
			c-6.68,5.89-15.8,9.44-17.67,20.18c-3.11-5.49-7.41-6.82-12.92-7.01c-5.51-0.19-9.42,2.03-9.61,7.58
			c-0.21,6.45-0.05,12.92-0.05,19.36c-2.04,0.26-3.95,0.5-5.86,0.74c-4.06,0.5-7.7-2.6-8.27-7.49
			c-1.32-11.34-6.34-20.46-15.42-27.46c-2.61-2.01-4.81-4.59-7.03-7.05c-3.31-3.66-6.36-7.08-11.59-8.79
			c-3.36-1.1-5.74-5.6-8.18-8.85c-0.64-0.86-0.39-3.66,0.29-4.04c6.79-3.76,6.64-10.63,7.95-16.85
			C276.88,423.08,277.01,421.24,277.28,419.02z"/>
		<path class="st0" d="M136.15,559.57c-10.14-2.04-19.98-3.61-29.63-5.99c-4.75-1.17-9.13-3.84-13.68-5.84
			c0.25-0.69,0.51-1.38,0.76-2.08c3.25,0.94,6.46,2.22,9.78,2.75c3.91,0.62,7.99,1.17,11.88,0.71c3.91-0.46,6.2-7.04,4.03-10.39
			c-1.24-1.93-2.73-3.7-4.55-6.13c7.43-2.78,13.92-6.47,16.54-14.1c2.7-7.85-0.85-14.2-6.07-20.25c2.16-0.67,4.15-0.85,5.63-1.82
			c4.72-3.07,4.84-9.51,0.15-13.01c-5.39-4.03-11.04-7.71-16.57-11.53c4.34-5.19,7.02-4.8,13.25-2.94
			c6.32,1.89,12.69,2.51,16.87,8.63c0.71,1.05,3.98,0.35,6.36,0.47c2.58,6.29,6.24,11.54,14.83,9.86c-0.49,2.1-1.04,3.94-1.33,5.83
			c-0.78,5.12,2.9,8.84,8.08,8.47c2.55-0.18,5.13-0.03,7.85-0.03c-2.78,8.1-3.14,14.1,11.4,18.5c-2.55,1.27-5.05,2.64-7.65,3.8
			c-7.99,3.58-16.34,6.5-23.95,10.76c-7.51,4.2-9.28,14.98-4.72,22.92c5.91,10.28,15.71,13.94,26.71,14.65
			c6.13,0.39,12.35-0.63,18.18-1c-3.66,4.16-7.45,8.47-11.44,13.01c-3.74-7.97-10.8-7.09-17.94-6.07c-0.78,0.11-2.16,0.15-2.32-0.2
			c-1.81-4.02-5.62-3.37-8.86-4.6c-4.82-1.85-8.8-5.81-13.28-8.67C143.26,563.24,139.84,561.55,136.15,559.57z"/>
		<path class="st0" d="M628.4,88.57c-1.08-5.91-1.99-11.42-3.22-16.85c-0.77-3.38,1.06-4.63,3.58-6.09
			c10.43-6.06,20.95-12.02,31.03-18.64c6.65-4.37,11.67-10.37,14.45-18.24c1.08-3.07,4.11-5.45,6.84-7.76
			c2.85,4.54,7.24,6.3,7.68,11.52c0.17,2.07,4.4,3.8,7.37,6.15c0.82,6.64-4.59,10.71-9.26,15.01c-3.3,3.04-5.73,6.44-4.53,10.87
			c1.06,3.88,1.5,7.66,1.89,11.61c0.25,2.51,3.97,4.68,6.41,7.29c-1.75,2.66-4.31,6.54-7.73,11.72c-3.37,0.61-5.53,3.94-6.35,9.24
			c-0.41,2.65-2.91,5.25-5.07,7.21c-0.9,0.82-3.84,0.55-5.04-0.33c-7.81-5.77-15.55-5.93-23.32-0.14c-2.6,1.93-5.31,3.72-8.52,5.96
			C632.41,107.09,630.42,98.05,628.4,88.57z"/>
		<path class="st0" d="M364.47,259.88c-2.86-1.56-5.35-3-8.75-4.96c7.57-3.93,10.51-9.82,13.8-16.08
			c2.43-4.64,8.25-7.94,13.22-10.58c2.01-1.07,6.26,0.52,8.67,2.12c4.96,3.3,7.78,3.76,13.06,0.86c1.32-0.72,3.34-0.18,4.65-0.91
			c2.17-1.22,5.08-2.61,5.83-4.62c2.81-7.5,4.87-15.28,6.72-21.33c15.13-2.3,28.53-4.35,42.6-6.49c-0.5,1.38-0.59,2.35-1.11,2.95
			c-9.35,10.75-18.6,21.6-28.26,32.06c-2.44,2.64-6.12,4.32-9.51,5.84c-2.77,1.24-3.58,2.93-3.57,5.76
			c0.02,8.55-2.24,11.64-10.22,14.18c-3.96,1.26-7.97,2.35-11.98,3.46c-0.77,0.21-1.6,0.17-2.07,0.21
			c-1.14-2.85-1.74-5.72-3.33-7.84c-1.05-1.4-3.49-1.88-5.41-2.45c-1.66-0.5-3.47-0.87-5.17-0.72c-3.76,0.33-7.17,1.43-8.23,5.78
			c-0.42,1.74-1.01,3.43-1.55,5.26C370.59,261.52,367.72,260.76,364.47,259.88z"/>
		<path class="st0" d="M281.78,72.66c13.19-6.46,26.06-12.71,39.7-19.33c-7.45,24.92-14.73,49.3-21.98,73.58
			c-4.35-2.16-7.85-4.31-11.65-5.6c-1.71-0.58-4.63-0.14-5.92,1.03c-3.54,3.23-5.45,1.22-7.73-1.37
			c-3.03-3.44-6.23-6.73-10.07-10.85c4.62-10.94,9.66-22.95,14.82-34.91C279.37,74.25,280.62,73.64,281.78,72.66z"/>
		<path class="st0" d="M251.8,85.72c-2.4,6.91-3.98,14.26-7.37,20.65c-6.86,12.93-16.27,24.14-27.14,33.93
			c-4.68,4.21-10.26,7.42-15.44,11.09c-0.39-0.36-0.77-0.72-1.16-1.08c1.06-1.85,2.21-3.65,3.16-5.56
			c3.56-7.14,7.43-14.16,10.48-21.51c3.94-9.51,11.45-16.13,17.57-23.92c5.19-6.6,11.91-10.19,19.6-13.38
			C251.83,85.77,251.8,85.72,251.8,85.72z"/>
		<path class="st0" d="M842.62,265.14c-4.59-1.24-6.96,1.17-8.68,4.39c-1.48,2.77-2.52,5.78-3.92,8.59
			c-2.07,4.15-5.36,4.4-8.02,0.45c-2.87-4.26-5.21-8.87-8.15-13.08c-3.79-5.43-7.95-10.6-11.95-15.89
			c5.21-3.68,4.18-6.36-0.71-12.17c8.45,2.75,17.07,5.08,25.3,8.38c8.12,3.25,10.26,5.77,20.31,18.31
			C845.39,264.52,844.21,264.85,842.62,265.14z"/>
		<path class="st0" d="M256.25,482.95c-4.27-0.77-6.97,1.22-7.02,4.88c-0.14,9.98,0.3,19.96,0.6,29.94
			c0.07,2.41,0.45,4.82,0.75,7.82c-3.25-4.42-6.02-8.19-8.8-11.96c-8.44-16.39-9.83-34.15-5.88-54.05c2.02,3.75,3.48,6.29,4.78,8.91
			c1.18,2.38,2.09,4.9,3.3,7.26c2.05,3.99,4.96,6.47,9.83,4.93C256,479.97,257.95,479.57,256.25,482.95z"/>
		<path class="st0" d="M589.23,97.22c-4.44,3.76-8.62,7.26-13.42,11.28c-2.51-4.7-7.09-7.27-6.49-13.25
			c0.23-2.26-1.55-4.96-2.95-7.11c-2.75-4.23-5.86-8.21-9.05-12.61c7.18,1.2,13.47,2.83,19.83,3.15c6.55,0.33,13.16-0.62,20.1-1.03
			C598.86,85.4,594.31,91.24,589.23,97.22z"/>
		<path class="st0" d="M512.35,388.87c-4.8,0.79-8.63,2.32-10.97,6.6c-0.52,0.96-2,1.39-3.05,2.07c-0.49-1.11-1.34-2.19-1.41-3.33
			c-0.24-3.96-1-7.16-5.85-7.85c-1-0.14-2.19-2.34-2.43-3.74c-1.11-6.55-1.97-13.15-2.81-19.75c-0.58-4.56,1.3-6.37,7.24-8.12
			c3.86-1.14,5.34,0.75,6.69,3.87c2.64,6.11,5.56,12.09,8.37,18.13c2.3,4.96,6.07,6.95,11.73,5.97
			C517.46,384.7,515.07,386.68,512.35,388.87z"/>
		<path class="st0" d="M880.16,336.32c-0.48,1.61-0.82,2.88-1.23,4.41c-8.33-1.46-16.56-2.89-26-4.54
			c13.12-5.23,15.17-8.67,8.82-13.9c4.99-1.5,9.33-4.35,6.86-9.71c-1.13-2.46-5.9-3.25-8.61-4.6c1.54-2.21,3.87-5.59,6.72-9.69
			c1.16,2.37,2.8,5.33,4.08,8.43c1.64,3.98,4.81,5.47,8.67,5.33c2.77-0.1,4.76,0.55,5.11,3.33c0.22,1.81,0.03,4.02-0.86,5.53
			c-1.39,2.35-2.41,4.16-0.28,6.68c0.64,0.75,0.37,2.72-0.12,3.87C882.61,333.09,881.33,334.48,880.16,336.32z"/>
		<path class="st0" d="M481.44,220.52c-2.17,12.39-4.17,24.38-6.45,36.31c-0.38,2.01-1.94,3.79-2.96,5.68
			c-0.65-0.15-1.3-0.29-1.96-0.44c-2.71-9.53-5.45-19.05-8.09-28.6c-0.19-0.69,0.06-1.77,0.52-2.34c4.35-5.41,8.66-10.86,13.3-16.01
			c1.15-1.28,3.49-1.49,6.36-2.61C481.89,215.7,481.7,217.89,481.44,220.52z"/>
		<path class="st0" d="M67.07,381.1c-3.06,3.21-5.84,6.2-8.62,9.18c-0.38-0.3-0.77-0.61-1.15-0.91c6.8-12.35,13.59-24.7,20.4-37.06
			c5.65,5.46,6.09,8.15,1.63,14.02C75.53,371.32,71.35,376.03,67.07,381.1z"/>
		<path class="st0" d="M861.84,277.23c1.71,2.68,3.02,5.21,4.74,7.44c3.37,4.36-0.3,7.32-1.7,10.47c-2.22-1.2-4.43-2.4-6.73-3.65
			c-0.35-7.05-0.35-7.05-7.74-9.85c1.19-3.73,2.37-7.45,3.85-12.06C856.86,272.19,859.24,274.56,861.84,277.23z"/>
		<path class="st0" d="M580.93,55.46c0.02-2.89,0.02-5.34,0.02-8.74c5.56,0.83,10.47,1.56,15.39,2.29c0.19,0.42,0.38,0.84,0.56,1.26
			c-7.71,1.85-8.26,12.71-18.26,13.26C579.55,60.46,580.23,58.18,580.93,55.46z"/>
		<path class="st0" d="M549.98,355.97c-1.34,1.4-2.47,3.08-4.01,4.21c-5.44,4-11.02,7.81-17.13,12.09
			c-0.91-4.02-1.79-7.95-2.85-12.64c8.51,1.59,16.17,0.44,23.72-3.44C550.05,356.03,549.99,355.99,549.98,355.97z"/>
		<path class="st0" d="M30.73,514.11c7.46-1.17,9.71,2.34,7.38,12.02c-5.12-3.55-9.96-6.91-14.81-10.27
			c0.16-0.47,0.31-0.93,0.47-1.4C25.95,514.37,28.13,514.27,30.73,514.11z"/>
		<path class="st0" d="M120.32,580.61c-4.58-0.04-7.23-4.46-6.51-9.53c4.26,1.45,8.57,2.93,14.35,4.9
			C124.93,577.88,122.78,579.13,120.32,580.61z"/>
		<path class="st0" d="M597.49,31.55c-2.4,0.7-4.83,1.03-8.78,1.58c2.39-4.37,3.97-7.26,5.55-10.15c0.53,0.01,1.05,0.03,1.58,0.04
			C596.38,25.74,596.92,28.46,597.49,31.55z"/>
		<path class="st0" d="M18.73,159.45c-1.84,1.01-3.85,1.89-5.86,2.76c0.29,0.31,0.58,0.61,0.87,0.92c0.74-2.44,1.48-4.89,2.22-7.33
			c0.35-0.09,0.71-0.18,1.06-0.27C17.54,156.79,18.05,158.05,18.73,159.45z"/>
		<path class="st0" d="M624.48,28.14c-1.35,1.93-3,3.77-5.39,6.41c-0.64-2.67-1.02-4.28-1.55-6.51
			C620.06,28.04,622.12,28.04,624.48,28.14z"/>
		<path class="st0" d="M128.98,784.6c-0.32,1.92-0.68,3.57-1.04,5.23C125.76,786.06,125.76,786.06,128.98,784.6z"/>
		<path class="st0" d="M416.3,625.58c-2.13-0.1-3.89-0.24-6.77-0.47c4.16-0.83,7.21-1.43,10.27-2.04c0.09,0.29,0.18,0.59,0.27,0.88
			C418.93,624.48,417.8,625.02,416.3,625.58z"/>
		<path class="st0" d="M87.08,150.63c-0.07,1.53-0.14,2.77-0.21,4c-0.29,0.03-0.57,0.07-0.86,0.1c-0.34-1.53-0.77-3.05-0.96-4.6
			c-0.04-0.37,0.75-0.83,1.15-1.25C86.5,149.36,86.79,149.85,87.08,150.63z"/>
		<path class="st0" d="M251.84,85.8c0.17-0.03,0.33-0.09,0.48-0.15c-0.07,0.12-0.14,0.24-0.37,0.22
			C251.8,85.72,251.83,85.77,251.84,85.8z"/>
		<path class="st0" d="M494.97,77.98c-0.12,0.22-0.22,0.47-0.32,0.71c-0.04-0.22-0.08-0.44,0.13-0.65
			C495.03,78.04,494.99,78,494.97,77.98z"/>
		<path class="st0" d="M711.02,384.01c0,0-0.1-0.17-0.1-0.17s-0.02,0.24,0.04,0.18C711.01,383.97,711.02,384.01,711.02,384.01z"/>
		<path class="st0" d="M321.42,52.55c0.08-0.07,0.09,0.2,0.09,0.2S321.33,52.62,321.42,52.55z"/>
		<path class="st0" d="M1419.89,60.91c10.3,5.54,33.52,5.44,40.77-6.97c4.13-7.07,8.91-10.39,17.34-8.13
			c3.88,1.04,8.27,0.75,12.36,0.35c7.11-0.71,7.09-0.94,8.41-8.22c4.44,1.23,8.85,2.46,12.14,3.37c0,4.78-1.35,9.52,0.38,12.4
			c1.69,2.82,6.54,3.74,11.14,6.07c-5.02,0.38-8.93,0.34-12.71,1.05c-4.02,0.75-8.09,1.79-11.82,3.43c-4.25,1.87-4.19,4.5-0.27,7.09
			c1.51,1,3.13,1.83,5.62,3.26c-1.18,0.88-2.4,1.43-3.1,2.37c-2.3,3.08-1.65,6.65,1.92,8.11c5.66,2.31,11.55,4.06,17.37,6
			c1.7,0.57,3.45,0.98,6.47,1.81c-7.44,3.51-12.74,8.08-20.92,6.5c-9.9-1.92-20.07-2.38-30.13-3.48c-0.5-0.05-1.05,0-1.47-0.21
			c-7.76-3.89-15.51-7.81-23.13-11.66c4.01-0.88,8.62-1.78,13.16-2.94c1.89-0.48,4.02-1.11,5.36-2.39c1.86-1.79,2.54-4.45-1.04-5.15
			c-3.48-0.68-7.14-0.98-10.67-0.73c-17.46,1.24-34.62,5.99-52.34,4.26c-1.8-0.18-4.03-0.43-5.4,0.42
			c-5.04,3.14-8.57-0.02-12.55-2.21c-8.77-4.8-17.22-10.02-24.29-17.2c-0.69-0.7-2.09-1.62-1.95-2.05c1.92-5.87-3.01-4.79-5.8-5.93
			c-8.29-3.39-14.27-9.32-18.31-17.2c-0.22-0.43,1.57-2.73,2.43-2.74c14.96-0.17,29.92-0.13,45.01-0.13
			c-1.28,10.55-0.29,12.39,9.53,14.04c7.66,1.29,15.51,1.39,23.29,1.98c1.6,0.12,3.22,0.02,4.97,0.02
			C1421.06,51.29,1414.29,55.18,1419.89,60.91z"/>
		<path class="st0" d="M1359.86,122.17c-4.53-5.55-8.8-10.85-13.08-16.15c4.57-3.6,4.53-4.6,0.11-6.25c-2.67-1-3.95-2.35-3.87-5.45
			c0.23-8.32,0.08-16.65,0.08-25.71c8.06,4.91,15.37,9.63,22.95,13.88c5.16,2.9,10.6,5.4,16.11,7.56c2.58,1.01,3.6,1.61,3.13,4.77
			c-0.67,4.54-0.13,9.23-0.34,13.85c-0.23,5.29,3.03,7.34,7.43,8.11c3.08,0.54,6.26,0.56,9.4,0.66c9.93,0.31,18.27,5.16,27.77,9.01
			c-4.07,4.43-7.91,3.33-11.91,1.98c-7.05-2.37-14.03-5.2-21.27-6.67c-5.43-1.1-11.29-0.9-16.83-0.25c-2.67,0.31-5.07,3-7.59,4.62
			c2.13,2.32,3.84,5.65,6.48,6.74c5.62,2.32,11.72,3.47,17.63,5.11c1.56,0.43,3.11,0.9,5.17,1.5c-2.56,3.64-4.51,5.96-8.93,3.32
			c-8.69-5.19-17.69-9.86-26.41-15C1363.69,126.49,1362.04,124.24,1359.86,122.17z"/>
		<path class="st0" d="M1646.08,57.46c-1.09-3.1-2.14-5.76-3.55-9.33c11.75-1.35,24.59-2.82,37.08-4.26
			c0.8,2.08,1.68,4.33,2.73,7.05c-6.31,0.59-8.28,7.06-12.12,11.75c-5.04,6.15-11.76,9.44-19.83,9.24
			c-1.12-0.03-2.96-1.57-3.16-2.65C1646.54,65.54,1646.44,61.7,1646.08,57.46z"/>
	</g>
</g>
<path class="st1" d="M1481.68,13.55c46.88-79.92,114.7,32.52,118.74,39.36c0.13,0.22,0.28,0.43,0.44,0.64l65.54,40.91
	c3.47,4.4-26.64-5.32-32.06-6.73l-85.99,16.95c-1.03-0.27-1.96-0.81-2.71-1.57l-42.43-43.46l-9.43-9.66
	c-4.57-4.68,0.83-12.18,6.72-9.34l5.08,2.45c4.76,2.3,9.88-2.41,7.99-7.35v0c-1.12-2.92,0.26-6.19,3.12-7.44l55.68-24.33
	c0.51-0.22,0.98-0.51,1.4-0.87l24.55-20.45c2.13-1.78,5.22-1.81,7.38-0.08l43.89,35.04c3.96,3.16,2.31,9.51-2.69,10.33
	c-50.91,8.36-233.86,35.48-204.52-11.91c34.03-54.96,10.92,88.73,33.42,38.08s62.11,1.95,73.47-30.1
	C1560.62-8.05,1456.36,56.72,1481.68,13.55z"/>
</svg>
